<?xml version="1.0" encoding="utf-8"?>
<!-- Generator: Adobe Illustrator 25.4.1, SVG Export Plug-In . SVG Version: 6.00 Build 0)  -->
<svg version="1.1" xmlns="http://www.w3.org/2000/svg" xmlns:xlink="http://www.w3.org/1999/xlink" x="0px" y="0px"
	 viewBox="0 0 500 500" style="enable-background:new 0 0 500 500;" xml:space="preserve">
<style type="text/css">
	.st0{display:none;}
	.st1{fill:#0045FF;}
</style>
<g id="BACKGROUND" class="st0">
</g>
<g id="OBJECTS">
	<g>
		<path class="st1" d="M358.3,113.46c0-0.03-0.01-0.05-0.01-0.08c0.01,0.05,0.02,0.11,0.03,0.16
			C358.31,113.51,358.3,113.49,358.3,113.46z"/>
		<path class="st1" d="M98.56,163.19c0.02,0,0.04-0.01,0.06-0.01c-0.02,0.01-0.05,0.01-0.07,0.02
			C98.55,163.2,98.55,163.19,98.56,163.19C98.55,163.19,98.56,163.19,98.56,163.19z"/>
		<path class="st1" d="M265.8,210.91C265.8,210.91,265.8,210.91,265.8,210.91c0,0-0.01,0-0.01,0
			C265.79,210.91,265.79,210.91,265.8,210.91z"/>
		<path class="st1" d="M430.72,349.34c0,0.01-0.01,0.02-0.01,0.03c0-0.01,0-0.01,0-0.02C430.72,349.35,430.72,349.34,430.72,349.34z
			"/>
		<path class="st1" d="M402.91,405.39c0,0.01,0,0.02,0,0.04C402.91,405.42,402.91,405.41,402.91,405.39
			C402.91,405.39,402.91,405.39,402.91,405.39z"/>
		<path class="st1" d="M294.31,400.85c-0.06,0.01-0.11,0.01-0.17,0.02c-0.12,0.01-0.24,0.03-0.36,0.05
			C293.96,400.89,294.13,400.87,294.31,400.85z"/>
		<path class="st1" d="M451.05,354.56c-0.34-3.59-1.13-7.17-2.42-10.53c-0.38-0.99-0.75-1.99-1.22-2.93
			c-0.47-0.94-1.01-1.85-1.53-2.76c-0.94-1.66-1.91-3.31-2.93-4.92c-1.96-3.1-4.08-6.16-6.43-8.99c-2.29-2.75-4.74-5.39-7.45-7.73
			c-2.31-1.99-4.79-3.74-7.43-5.27c-3.9-2.25-8.14-3.91-12.5-5.01c-1.64-0.41-3.32-0.7-5-0.89c-0.67-0.07-1.35-0.13-2.02-0.17
			c-0.89-0.05-1.82-0.12-2.69,0.05c-0.89-1.05-1.81-2.07-2.75-3.08c-3.47-3.67-7.27-7.04-11.56-9.73c-4.26-2.68-8.71-5.02-13.34-7
			c-0.84-0.36-1.67-0.71-2.52-1.04c-3.94-1.55-8.01-2.84-12.16-3.71c-0.07-0.22-0.13-0.44-0.2-0.66c-0.29-1.1-0.54-2.22-0.71-3.34
			c-0.19-1.54-0.3-3.08-0.31-4.62c0.01-1.16,0.07-2.32,0.21-3.47c0.13-0.9,0.3-1.8,0.53-2.68c0.26-0.91,0.59-1.81,0.95-2.69
			c0.52-1.21,1.11-2.38,1.77-3.53c0.8-1.32,1.68-2.58,2.62-3.8c1.14-1.44,2.29-2.89,3.58-4.2c1.16-1.1,2.36-2.15,3.62-3.13
			c1.89-1.43,3.87-2.75,5.92-3.94c0.02-0.01,0.04-0.02,0.05-0.03c0.11-0.06,0.22-0.12,0.32-0.18c3.4-1.87,6.93-3.46,10.48-5.03
			c3.82-1.68,7.63-3.38,11.41-5.13c3.71-1.72,7.41-3.58,10.7-6.01c3.2-2.36,6.17-5.09,8.47-8.35c1.7-2.42,3.13-5.07,4.09-7.87
			c0.32-0.91,0.6-1.83,0.79-2.78c0.43,0.24,0.86,0.46,1.3,0.65c1.92,0.83,4.02,1.27,6.11,1.39c0.31,0.02,0.63,0.03,0.94,0.03
			c2.36,0,4.73-0.53,6.68-1.91c1.1-0.78,2.06-1.78,2.9-2.84c0.67-0.85,1.27-1.75,1.78-2.7c0.64-1.24,1.13-2.53,1.44-3.89
			c0.22-1.02,0.34-2.06,0.37-3.09c0.03-1.1-0.13-2.2-0.44-3.26c-0.17-0.58-0.37-1.14-0.61-1.67c0.3-0.17,0.58-0.38,0.84-0.61
			c0.26-0.24,0.51-0.48,0.75-0.74c0.45-0.48,0.84-1.02,1.19-1.57c0.83-1.31,1.55-2.69,2.07-4.15c0.94-2.61,1.2-5.62,0.3-8.28
			c-0.47-1.38-1.22-2.63-2.19-3.71c0.32-0.35,0.62-0.72,0.88-1.12c0.93-1.44,1.5-3.12,1.55-4.84c0.03-1.11-0.09-2.2-0.41-3.27
			c-0.33-1.15-0.91-2.2-1.67-3.13c-0.38-0.46-0.8-0.89-1.25-1.28c-0.51-0.43-1.05-0.85-1.67-1.12c-0.62-0.27-1.25-0.5-1.92-0.62
			c-0.67-0.12-1.32-0.12-1.99-0.04c-0.64,0.09-1.23,0.25-1.83,0.5c-0.48,0.2-0.95,0.46-1.39,0.75c-0.11,0.07-0.22,0.15-0.33,0.22
			c-0.2-0.55-0.46-1.08-0.81-1.56c-0.6-0.84-1.36-1.51-2.3-1.96c-0.89-0.43-1.91-0.69-2.91-0.71c-1.22-0.01-2.39,0.23-3.5,0.74
			c-1.17,0.54-2.1,1.39-2.89,2.39c-0.55,0.72-1.01,1.51-1.37,2.35c-0.41,0.95-0.8,1.98-0.8,3.03c0,0.12,0,0.24,0.01,0.35
			c-0.33-0.07-0.66-0.11-1-0.14c-0.69-0.05-1.39-0.05-2.07,0.02c-0.79,0.09-1.59,0.21-2.35,0.46c-0.83,0.26-1.54,0.72-2.23,1.24
			c-0.59,0.46-1.15,0.97-1.64,1.54c-0.56,0.66-1.05,1.35-1.46,2.11c-0.39,0.71-0.73,1.46-0.96,2.23c-0.22,0.75-0.34,1.52-0.41,2.3
			c-0.07,0.73-0.11,1.48-0.06,2.22c0.05,0.74,0.15,1.47,0.3,2.19c0.15,0.72,0.34,1.43,0.7,2.08c0.16,0.29,0.33,0.56,0.53,0.82
			c-0.67,0.08-1.34,0.22-2,0.42c0,0,0,0,0,0c-0.02,0.01-0.05,0.01-0.07,0.02c-1.39,0.43-2.75,1.1-3.89,2.01
			c-0.6,0.47-1.17,1.01-1.64,1.61c-0.43,0.57-0.79,1.19-1.09,1.85c-0.69,1.51-1.05,3.16-1.14,4.82c-0.05,0.93-0.02,1.87,0.12,2.79
			c0.17,1.09,0.41,2.2,0.81,3.23c0.45,1.18,1.06,2.29,1.89,3.25c0.72,0.84,1.54,1.62,2.42,2.29c0.46,0.35,0.94,0.7,1.44,1
			c0.15,0.09,0.31,0.18,0.46,0.25c-0.9,0.83-1.82,1.64-2.79,2.39c-0.01,0-0.01,0.01-0.02,0.01c-0.01,0-0.01,0.01-0.02,0.01
			c0,0-0.01,0.01-0.02,0.01c-0.01,0.01-0.01,0.01-0.03,0.02c-0.01,0-0.01,0.01-0.02,0.01c-0.56,0.42-1.15,0.79-1.77,1.15
			c-1.14,0.64-2.31,1.26-3.51,1.78c-1.12,0.46-2.27,0.88-3.43,1.21c-2.78,0.74-5.6,1.3-8.45,1.69c-1.24,0.16-2.49,0.25-3.73,0.35
			c-1.27,0.1-2.54,0.22-3.81,0.29c-2.1,0.11-4.21,0.21-6.31,0.35c-1.69,0.12-3.39,0.15-5.08,0.33c-1.87,0.19-3.76,0.38-5.6,0.76
			c-1.83,0.37-3.66,0.81-5.44,1.39c-1.56,0.5-3.08,1.07-4.59,1.69c-2.41,0.99-4.73,2.17-6.94,3.56c2.06-4.59,4.08-9.18,6.03-13.82
			c2.56-6.11,4.99-12.28,7.13-18.55c2.11-6.17,3.93-12.45,5.41-18.8c1.52-6.58,2.69-13.22,3.46-19.92
			c0.73-6.33,1.05-12.73,0.96-19.11c-0.09-6.17-0.61-12.32-1.67-18.4c-1.11-6.25-2.63-12.44-4.67-18.46
			c-2.15-6.33-4.86-12.5-8.09-18.35c-3.21-5.8-6.94-11.27-11.12-16.42c-4.3-5.29-9.17-10.13-14.4-14.5
			c-5.25-4.4-10.87-8.32-16.87-11.63c-6.25-3.45-12.82-6.21-19.62-8.39c-6.41-2.05-13-3.64-19.67-4.51
			c-6.91-0.89-13.89-1.25-20.86-0.99c-3.41,0.13-6.83,0.3-10.22,0.69c-3.04,0.35-6.06,0.81-9.07,1.34c-0.17,0.02-0.33,0.05-0.5,0.09
			c0,0-0.01,0-0.01,0c0,0,0,0-0.01,0c-0.08,0.01-0.17,0.03-0.25,0.04c-0.04,0-0.09,0.01-0.13,0.02c-0.17,0.03-0.34,0.06-0.53,0.09
			c-0.37,0.07-0.75,0.13-1.11,0.21c-0.84,0.16-1.69,0.33-2.53,0.51c-3.09,0.65-6.17,1.39-9.19,2.32c-3.13,0.97-6.21,2.09-9.23,3.38
			c-3.06,1.31-6.04,2.81-8.97,4.38c-2.92,1.56-5.82,3.17-8.62,4.93c-2.74,1.72-5.39,3.56-7.95,5.53
			c-5.15,3.96-9.96,8.35-14.29,13.18c-3.73,4.15-7.11,8.62-10.16,13.3c-3.01,4.64-5.73,9.45-8.47,14.25
			c-3.18,5.56-6.38,11.12-9.88,16.48c-1.45,2.23-2.95,4.42-4.46,6.61c-1.39,2.02-2.86,4.01-4.06,6.16c-0.61,1.1-1.2,2.21-1.69,3.37
			c-0.18,0.43-0.37,0.86-0.52,1.31c-0.11,0.3-0.23,0.59-0.33,0.89c-0.16,0.48-0.32,0.96-0.44,1.45c-0.59,2.45-0.87,5.07-0.46,7.57
			c0.48,2.96,1.52,5.81,2.81,8.5c2.97,6.18,7.51,11.41,12.51,16.05c1.43,1.32,2.92,2.6,4.42,3.84c-0.28,0.3-0.56,0.59-0.86,0.89
			c-0.67,0.63-1.36,1.22-2.09,1.77c-0.77,0.55-1.56,1.05-2.38,1.51c-0.83,0.44-1.69,0.83-2.56,1.18c-0.85,0.31-1.72,0.58-2.59,0.8
			c-1,0.23-2.01,0.39-3.04,0.52c-0.99,0.09-1.98,0.14-2.98,0.14c-0.98-0.03-1.97-0.1-2.94-0.23c-0.81-0.13-1.63-0.29-2.42-0.5
			c-0.72-0.22-1.43-0.5-2.14-0.76c-0.71-0.25-1.41-0.5-2.11-0.77c-1.32-0.51-2.69-0.88-4.03-1.35c-1.55-0.53-3.09-0.89-4.73-0.9
			c-1.49-0.01-2.98,0.24-4.4,0.72c-1.31,0.45-2.57,1.05-3.83,1.62c-1.17,0.53-2.31,1.14-3.5,1.62c-0.91,0.34-1.83,0.64-2.77,0.88
			c-0.02,0-0.04,0.01-0.05,0.01c0,0-0.01,0-0.01,0c0,0-0.01,0-0.01,0c-0.01,0-0.03,0-0.04,0.01c-0.01,0-0.03,0.01-0.05,0.01
			c-0.69,0.16-1.39,0.29-2.1,0.38c-0.82,0.08-1.64,0.13-2.47,0.12c-0.01,0-0.01,0-0.02,0c-0.01,0-0.03,0-0.05,0
			c-0.55-0.02-1.11-0.06-1.65-0.13c-0.2-0.04-0.41-0.08-0.61-0.13c-0.32-0.1-0.63-0.22-0.94-0.35c-0.38-0.16-0.76-0.34-1.11-0.55
			c-0.24-0.14-0.45-0.3-0.67-0.47c0,0-0.01-0.01-0.01-0.01c-0.1-0.08-0.2-0.17-0.3-0.26c-0.07-0.07-0.13-0.13-0.18-0.2
			c-0.01-0.01-0.01-0.03-0.01-0.04c0-0.01,0-0.02-0.01-0.03c-0.08-0.26-0.51-0.18-0.45,0.11c0,0,0.01,0.01,0.01,0.01
			c0.01,0.03,0.02,0.07,0.03,0.1c0.01,0.56,0.14,1.19,0.46,1.65c0.51,0.76,1.26,1.27,2.04,1.71c0.61,0.33,1.22,0.66,1.88,0.88
			c0.69,0.23,1.42,0.42,2.14,0.54c1.49,0.25,3.04,0.24,4.53,0c1.42-0.22,2.79-0.64,4.14-1.13c0.65-0.24,1.32-0.45,1.97-0.7
			c0.62-0.24,1.23-0.49,1.84-0.73c0.01,0,0.02-0.01,0.03-0.01c0.03-0.01,0.05-0.02,0.07-0.03c0.03-0.01,0.05-0.02,0.08-0.03
			c-0.01,0.01-0.03,0.01-0.04,0.02c0.6-0.23,1.21-0.44,1.83-0.6c0.64-0.15,1.29-0.26,1.94-0.35c0.58-0.05,1.17-0.06,1.75-0.06
			c0.33,0.01,0.65,0.04,0.97,0.08c0.68,0.11,1.36,0.25,2.02,0.43c0.25,0.07,0.5,0.15,0.75,0.24c-0.78,0.3-1.52,0.68-2.21,1.14
			c-0.96,0.64-1.81,1.39-2.62,2.22c-0.77,0.79-1.5,1.6-2.19,2.45c-1.59,1.95-3.24,3.87-5.03,5.64c-0.93,0.88-1.88,1.76-2.9,2.53
			c-0.91,0.64-1.86,1.23-2.84,1.77c-0.66,0.35-1.34,0.66-2.04,0.93c-0.67,0.25-1.35,0.46-2.04,0.64c-0.9,0.21-1.81,0.37-2.73,0.46
			c-0.99,0.1-1.98,0.19-2.97,0.18c-0.68-0.02-1.35-0.09-2.02-0.17c-0.01,0-0.01,0-0.02,0c-0.01,0-0.03,0-0.04,0
			c-0.37-0.06-0.73-0.13-1.09-0.22c-0.37-0.11-0.74-0.23-1.1-0.38c-0.14-0.05-0.28-0.12-0.43-0.15c-0.16-0.22-0.51,0.01-0.38,0.25
			c-0.04,0.43,0.41,0.8,0.7,1.04c0.65,0.53,1.39,0.87,2.17,1.16c0.6,0.22,1.22,0.43,1.85,0.57c0.64,0.14,1.29,0.21,1.95,0.24
			c0.35,0.01,0.71,0.02,1.07,0.02c1.1,0,2.2-0.07,3.3-0.26c1.34-0.22,2.69-0.49,3.98-0.91c0.63-0.2,1.24-0.42,1.85-0.67
			c0.56-0.22,1.09-0.49,1.61-0.77c0.01,0,0.01,0,0.01-0.01c0.72-0.39,1.42-0.81,2.11-1.25c2.11-1.35,3.94-3.07,5.71-4.81
			c0.92-0.91,1.82-1.84,2.73-2.76c0.76-0.77,1.5-1.57,2.28-2.33c0.55-0.52,1.13-1.02,1.73-1.47c0.37-0.26,0.76-0.52,1.15-0.75
			c0.13-0.06,0.25-0.12,0.38-0.17c0.2-0.07,0.39-0.13,0.59-0.19c0.23-0.05,0.47-0.09,0.7-0.12c0.32-0.03,0.64-0.04,0.97-0.04
			c0.42,0.01,0.84,0.04,1.26,0.09c0.96,0.16,1.9,0.37,2.83,0.63c0.46,0.13,0.91,0.28,1.36,0.42c0,0,0,0,0,0
			c0.43,0.18,0.86,0.35,1.29,0.51c1.86,0.68,3.84,1.14,5.82,1.31c0.65,0.05,1.31,0.08,1.96,0.08c1.23,0,2.46-0.09,3.67-0.29
			c1.67-0.26,3.29-0.74,4.87-1.34c0.06-0.02,0.12-0.04,0.17-0.06c0.65-0.25,1.28-0.52,1.91-0.83c2.35-1.15,4.58-2.61,6.52-4.38
			c0.79-0.72,1.55-1.48,2.28-2.27c0.05-0.05,0.09-0.1,0.14-0.15c0.81,0.59,1.64,1.17,2.48,1.7c5.31,3.39,10.67,6.72,16.21,9.73
			c2.78,1.51,5.61,2.95,8.5,4.24c2.44,1.09,4.91,2.08,7.4,3.03c2.54,0.96,5.09,1.87,7.67,2.71c4.99,1.64,10.06,3.07,15.23,4.08
			c5.47,1.07,11.04,1.6,16.61,1.69c2.86,0.05,5.73-0.03,8.58-0.2c1.73-0.11,3.45-0.27,5.17-0.49c1.39-0.17,2.76-0.43,4.13-0.71
			c0.12,0.33,0.25,0.64,0.37,0.94c0.47,1.13,0.99,2.25,1.43,3.4c0.46,1.34,0.89,2.71,1.21,4.09c0.29,1.44,0.55,2.88,0.75,4.34
			c0.05,0.39,0.1,0.79,0.14,1.18c0.01,0.09,0.02,0.17,0.03,0.26c0.01,0.15,0.02,0.31,0.03,0.46c0.03,0.42,0.04,0.85,0.05,1.27
			c0.04,1.45,0.01,2.9-0.05,4.35c-0.16,2.65-0.5,5.28-0.88,7.91c-0.35,2.44-0.72,4.89-1.15,7.32c0,0,0,0.01,0,0.01
			c-0.73,3.76-1.65,7.46-2.79,11.11c-2.07,6.33-4.62,12.47-7.4,18.51c-0.01,0.01-0.01,0.03-0.01,0.04c0,0,0,0.01-0.01,0.01
			c0,0.01-0.01,0.03-0.01,0.04c-0.02,0.04-0.04,0.08-0.06,0.12c-0.05,0.1-0.1,0.21-0.14,0.31c0.01-0.03,0.02-0.05,0.03-0.08
			c-2.36,5.06-4.78,10.09-7.24,15.1c-1.98,4.03-3.96,8.05-5.91,12.09c-1.07-0.31-2.25-0.41-3.29-0.51c-2.07-0.2-4.15-0.32-6.23-0.44
			c-4.28-0.24-8.58-0.37-12.87-0.38c-5.11-0.02-10.2,0.22-15.28,0.73c-5.57,0.56-11.13,1.39-16.58,2.69
			c-3.49,0.84-6.92,1.85-10.28,3.12c-2.91,1.1-5.73,2.38-8.48,3.83c-3.51,1.87-6.88,3.94-10.09,6.3c-2.7,1.98-5.27,4.1-7.74,6.34
			c-0.1-0.03-0.21-0.05-0.31-0.07c-2.66-0.58-5.42-0.6-8.13-0.47c-2.9,0.14-5.77,0.51-8.62,1c-2.61,0.45-5.22,0.94-7.78,1.59
			c-4.11,1.03-8.14,2.27-12.06,3.88c-3.81,1.56-7.53,3.3-11.14,5.27c-6.76,3.68-13.42,7.79-19.09,13.05
			c-2.86,2.65-5.53,5.48-7.86,8.61c-2.24,3-4.28,6.17-6,9.5c-1.78,3.46-3.32,7.06-4.48,10.77c-1.17,3.73-2.04,7.52-2.63,11.39
			c-1.12,7.37-1.07,14.89,0.61,22.18c0.84,3.62,1.87,7.19,3.2,10.66c1.3,3.38,2.73,6.71,4.34,9.94c1.71,3.43,3.65,6.7,5.81,9.86
			c2.41,3.51,5.04,6.92,7.89,10.09c5.42,6.02,11.39,11.53,17.92,16.33c6.24,4.59,13.05,8.44,20,11.86
			c7.17,3.53,14.61,6.53,22.11,9.28c7.77,2.86,15.68,5.33,23.69,7.43c3.61,0.94,7.24,1.82,10.9,2.55c3.92,0.78,7.85,1.43,11.79,1.99
			c5.17,0.72,10.37,1.24,15.57,1.61c7.8,0.56,15.62,0.79,23.44,0.83c0.34,0,0.67,0,1.01,0c7.48,0,14.96-0.31,22.42-0.95
			c8.15-0.7,16.26-1.8,24.33-3.1c3.73-0.6,7.44-1.29,11.15-2c3.52-0.68,7.04-1.38,10.53-2.16c7.15-1.6,14.26-3.43,21.34-5.31
			c7.71-2.06,15.4-4.22,23.02-6.58c7.42-2.29,14.75-4.85,21.98-7.69c7.23-2.83,14.39-5.83,21.37-9.23
			c7.36-3.58,14.57-7.52,21.57-11.75c6.19-3.74,12.22-7.76,17.96-12.17c3.14-2.41,6.21-4.9,9.16-7.54c1.48-1.32,2.93-2.68,4.34-4.08
			c1.33-1.32,2.66-2.65,3.87-4.07c2.52-2.96,5.03-5.94,7.42-9.02c2.33-3.01,4.55-6.12,6.61-9.32c1.99-3.09,3.87-6.28,5.48-9.58
			c1.67-3.43,3.15-6.96,3.75-10.76c0.28-1.79,0.53-3.6,0.59-5.41C451.25,358.07,451.22,356.31,451.05,354.56z M350.41,259.16
			c-0.33,0.71-0.64,1.44-0.93,2.17c-0.04-0.01-0.07-0.02-0.1-0.03c-0.71-0.22-1.43-0.37-2.16-0.44c-1.19-0.12-2.41-0.09-3.58,0.22
			c-0.87,0.22-1.7,0.53-2.5,0.93c-0.4,0.2-0.79,0.43-1.15,0.68c-0.34,0.23-0.68,0.46-1.01,0.7c-0.57,0.43-1.14,0.88-1.61,1.42
			c0.2-0.81,0.41-1.62,0.63-2.42c0.57-2.04,1.33-4.04,2.15-5.99c0.89-2.06,1.95-4.02,3.08-5.96c0,0,0-0.01,0.01-0.01
			c0.02-0.03,0.04-0.06,0.05-0.09c0.01-0.01,0.01-0.03,0.02-0.04c0.51-0.85,1.04-1.7,1.59-2.53c0.2-0.04,0.39-0.08,0.59-0.1
			c0.73-0.09,1.45-0.13,2.18-0.14c0.6,0.01,1.2,0.07,1.79,0.15c0.95,0.14,1.89,0.32,2.82,0.57c0.72,0.2,1.43,0.42,2.12,0.71
			c0.35,0.16,0.7,0.33,1.03,0.52c0.31,0.19,0.6,0.39,0.89,0.61c0.03,0.03,0.07,0.05,0.1,0.08
			C354.05,252.91,351.93,255.87,350.41,259.16z M340.97,264.81c0.46-0.15,0.93-0.29,1.39-0.42c0.59-0.16,1.18-0.3,1.78-0.39
			c0.67-0.09,1.35-0.14,2.02-0.15c0.46,0,0.91,0.04,1.37,0.09c0.34,0.05,0.68,0.1,1.01,0.18c-0.11,0.42-0.22,0.84-0.31,1.26
			c-0.37,1.75-0.61,3.54-0.67,5.33c-0.06,1.75,0.05,3.46,0.34,5.19c0.21,1.26,0.55,2.5,0.97,3.71c-2.78-0.28-5.57-0.42-8.37-0.4
			c-1.59,0.01-3.18,0.07-4.77,0.18c-0.05-0.66-0.09-1.31-0.1-1.96c0.01-2.01,0.12-3.99,0.38-5.98c0.23-1.58,0.53-3.14,0.88-4.69
			c0.1-0.07,0.21-0.13,0.31-0.19c0.27-0.15,0.55-0.3,0.82-0.46c0.51-0.29,1.02-0.54,1.56-0.76
			C340.04,265.15,340.5,264.96,340.97,264.81z M367.44,240.98c-1.75,1.08-3.45,2.24-5.08,3.48c-1.41,1.07-2.71,2.25-3.93,3.52
			c-0.59-0.56-1.24-1.03-1.94-1.44c-0.66-0.38-1.34-0.69-2.06-0.92c-0.82-0.26-1.66-0.43-2.51-0.54c-0.03,0-0.05-0.01-0.07-0.01
			c-1.72-0.21-3.46-0.01-5.12,0.43c-0.11,0.03-0.22,0.06-0.34,0.09c0.54-0.76,1.1-1.51,1.68-2.25c0,0,0-0.01,0.01-0.01
			c0,0,0.01-0.01,0.01-0.01c0,0,0.01-0.01,0.01-0.01c0.03-0.04,0.07-0.08,0.09-0.13c0.01-0.01,0.03-0.03,0.04-0.04
			c1.21-1.5,2.49-2.92,3.85-4.28c2.02-1.93,4.17-3.74,6.4-5.43c0.34-0.26,0.69-0.51,1.05-0.76c0.35,0.09,0.69,0.16,1.04,0.25
			c0.48,0.11,0.97,0.23,1.45,0.36c0.01,0,0.02,0,0.03,0.01c0,0,0,0,0,0c0.04,0.01,0.07,0.02,0.1,0.03c0.43,0.13,0.86,0.28,1.28,0.45
			c0.56,0.25,1.11,0.53,1.65,0.84c0,0,0,0,0,0h0c0.02,0.01,0.04,0.03,0.06,0.04c0,0,0.01,0,0.01,0.01c0.01,0,0.01,0,0.01,0.01
			c0.34,0.21,0.67,0.43,0.99,0.67c0.01,0.01,0.02,0.01,0.03,0.03c0.32,0.25,0.62,0.53,0.9,0.81c0.33,0.34,0.63,0.7,0.92,1.07
			c0.28,0.37,0.53,0.75,0.77,1.15c0.15,0.26,0.29,0.53,0.4,0.81c0.08,0.21,0.15,0.41,0.21,0.62
			C368.74,240.19,368.08,240.58,367.44,240.98z M423.63,163.84c0.02-0.14,0.04-0.27,0.08-0.41c0.11-0.35,0.24-0.7,0.38-1.04
			c0.13-0.29,0.26-0.57,0.42-0.84c0.13-0.21,0.28-0.42,0.43-0.61c0.19-0.24,0.39-0.46,0.6-0.68c0.27-0.26,0.55-0.5,0.85-0.73
			c0.15-0.11,0.31-0.21,0.47-0.31c0.15-0.08,0.31-0.16,0.46-0.23c0.15-0.06,0.3-0.11,0.45-0.16c0.08-0.02,0.15-0.03,0.23-0.05
			c0.09-0.01,0.17-0.02,0.26-0.02c0.13,0,0.26,0.01,0.39,0.03c0.08,0.01,0.17,0.03,0.25,0.05c0.07,0.03,0.15,0.05,0.22,0.08
			c0.09,0.04,0.18,0.09,0.27,0.13c0.09,0.05,0.17,0.11,0.25,0.17c0.07,0.05,0.13,0.11,0.19,0.17c0.1,0.11,0.2,0.22,0.29,0.33
			c0.11,0.15,0.21,0.3,0.3,0.45c0.1,0.19,0.2,0.39,0.28,0.59c0.1,0.26,0.2,0.52,0.29,0.79c0.1,0.35,0.21,0.72,0.39,1.04
			c0.29,0.53,0.7,1.01,1.26,1.27c0.42,0.2,0.88,0.29,1.35,0.19c0.3-0.06,0.55-0.19,0.79-0.37c0,0,0.01,0,0.01,0
			c0.03-0.02,0.07-0.04,0.1-0.05c0.25-0.14,0.48-0.3,0.72-0.45c0.01-0.01,0.04-0.02,0.05-0.03c0,0,0,0,0.01,0c0,0-0.01,0-0.01,0.01
			c0,0,0.01,0,0.01-0.01c0,0,0,0,0.01,0c0,0,0.01-0.01,0.01-0.01c0.03-0.02,0.07-0.04,0.09-0.05c0.07-0.04,0.14-0.08,0.21-0.12
			c0.04-0.02,0.07-0.04,0.1-0.06c0.02-0.01,0.04-0.03,0.07-0.04c0,0,0.01,0,0.01-0.01c0.01,0,0.02-0.01,0.03-0.01
			c0.01-0.01,0.03-0.01,0.05-0.03c0,0,0.01,0,0.01-0.01c0.23-0.13,0.46-0.25,0.69-0.35c0.42-0.17,0.85-0.32,1.29-0.44
			c0.2-0.05,0.39-0.09,0.59-0.13c0.11-0.01,0.22-0.02,0.34-0.02c0.22,0.01,0.45,0.03,0.67,0.05c0.21,0.03,0.42,0.07,0.63,0.12
			c0.12,0.04,0.23,0.08,0.35,0.12c0.1,0.05,0.2,0.1,0.3,0.16c0.18,0.11,0.35,0.23,0.52,0.36c0.16,0.14,0.32,0.28,0.48,0.43
			c0.15,0.16,0.3,0.33,0.43,0.5c0.13,0.19,0.26,0.38,0.38,0.58c0.11,0.2,0.21,0.41,0.3,0.61c0.08,0.21,0.14,0.42,0.21,0.63
			c0.07,0.26,0.12,0.51,0.16,0.78c0.03,0.25,0.05,0.51,0.06,0.77c-0.01,0.22-0.02,0.44-0.04,0.66c-0.03,0.17-0.06,0.35-0.1,0.52
			c-0.1,0.31-0.21,0.62-0.34,0.92c-0.2,0.46-0.43,0.91-0.68,1.35c-0.13,0.21-0.26,0.42-0.41,0.63c-0.67-0.3-1.36-0.53-2.07-0.73
			c-1.54-0.4-3.11-0.56-4.7-0.37c-1.17,0.16-2.32,0.46-3.39,0.97c-0.88,0.42-1.7,0.96-2.43,1.61c-0.09-0.29-0.2-0.58-0.32-0.86
			c-0.56-1.3-1.37-2.52-2.27-3.61c-0.96-1.15-2.1-2.17-3.37-2.96C423.53,164.67,423.58,164.25,423.63,163.84z M411.83,173.78
			c0.05-0.35,0.12-0.69,0.21-1.03c0.03-0.1,0.07-0.2,0.1-0.3c0.13-0.28,0.28-0.55,0.44-0.82c0.17-0.29,0.36-0.56,0.56-0.83
			c0.28-0.33,0.57-0.65,0.87-0.96c0.31-0.29,0.63-0.56,0.96-0.83c0.28-0.2,0.57-0.4,0.86-0.58c0.14-0.08,0.28-0.14,0.43-0.21
			c0.2-0.08,0.4-0.15,0.61-0.21c0.28-0.07,0.56-0.12,0.85-0.17c0.32-0.04,0.65-0.06,0.98-0.07c0.29,0,0.57,0.03,0.85,0.06
			c0.35,0.05,0.71,0.12,1.05,0.21c0.26,0.08,0.51,0.17,0.76,0.26c0.26,0.12,0.52,0.25,0.78,0.39c0.3,0.18,0.58,0.38,0.86,0.59
			c0.36,0.29,0.7,0.59,1.03,0.92c0.31,0.32,0.6,0.65,0.87,1c0.2,0.28,0.39,0.56,0.56,0.86c0.23,0.41,0.45,0.84,0.64,1.27
			c0.13,0.31,0.25,0.63,0.36,0.96c0.08,0.37,0.15,0.73,0.27,1.09c0.09,0.26,0.18,0.52,0.28,0.77c0.16,0.41,0.36,0.87,0.71,1.16
			c0.33,0.28,0.77,0.43,1.21,0.33c0.28-0.07,0.5-0.2,0.71-0.39c0.19-0.19,0.36-0.39,0.54-0.59c0.11-0.1,0.21-0.2,0.33-0.29
			c0.2-0.15,0.4-0.3,0.6-0.45c0,0,0.01-0.01,0.01-0.01c0.27-0.2,0.54-0.4,0.83-0.57c0.34-0.18,0.69-0.34,1.04-0.49
			c0.33-0.13,0.65-0.25,0.99-0.34c0.37-0.09,0.73-0.17,1.1-0.23c0.29-0.03,0.58-0.05,0.87-0.05c0.19,0,0.38,0.01,0.58,0.03
			c0.48,0.08,0.95,0.18,1.42,0.3c0.3,0.09,0.59,0.19,0.89,0.3c0.31,0.14,0.63,0.29,0.93,0.46c0.15,0.1,0.3,0.2,0.45,0.31
			c0.22,0.18,0.43,0.37,0.63,0.57c0.22,0.24,0.43,0.48,0.64,0.73c0.12,0.16,0.23,0.33,0.34,0.5c0.11,0.21,0.21,0.42,0.3,0.63
			c0.09,0.24,0.18,0.48,0.25,0.73c0.04,0.19,0.08,0.38,0.12,0.57c0.03,0.29,0.05,0.58,0.06,0.88c-0.01,0.33-0.03,0.66-0.07,0.98
			c-0.07,0.46-0.16,0.91-0.28,1.36c-0.15,0.52-0.33,1.03-0.54,1.54c-0.18,0.41-0.38,0.8-0.6,1.18c-0.27,0.44-0.56,0.85-0.87,1.26
			c-0.38,0.46-0.78,0.9-1.2,1.33c-0.07,0.07-0.13,0.13-0.2,0.19c-0.86-0.72-1.85-1.34-2.88-1.76c-1.13-0.47-2.33-0.81-3.55-0.88
			c-0.79-0.04-1.57,0.05-2.34,0.2c-0.62,0.12-1.22,0.33-1.81,0.54c-0.95,0.33-1.89,0.7-2.75,1.21c-0.42,0.25-0.8,0.54-1.18,0.85
			c0,0,0,0,0,0c-0.13-0.17-0.28-0.32-0.43-0.46c-0.62-1.03-1.35-1.98-2.21-2.81c-0.8-0.76-1.67-1.47-2.62-2.03
			c-0.26-0.17-0.53-0.32-0.8-0.47c-1.45-0.78-3-1.33-4.61-1.59c-0.13-0.24-0.28-0.48-0.42-0.72c-0.26-0.46-0.48-0.96-0.68-1.44
			c0,0,0,0,0,0c-0.03-0.07-0.06-0.14-0.09-0.21c-0.13-0.33-0.23-0.67-0.32-1.02c-0.1-0.38-0.2-0.77-0.26-1.16
			c-0.05-0.48-0.08-0.98-0.09-1.47C411.76,174.52,411.79,174.15,411.83,173.78z M406.51,198.76c-0.35-0.36-0.69-0.74-1.01-1.13
			c-0.25-0.31-0.48-0.63-0.69-0.96c-0.17-0.3-0.33-0.6-0.47-0.91c-0.16-0.38-0.3-0.77-0.43-1.17c-0.15-0.54-0.26-1.09-0.36-1.63
			c-0.07-0.46-0.12-0.93-0.14-1.39c-0.01-0.44,0.01-0.87,0.05-1.31c0.04-0.41,0.11-0.81,0.2-1.22c0.05-0.22,0.12-0.43,0.19-0.64
			c0.06-0.07,0.12-0.13,0.18-0.2c0.26-0.27,0.54-0.53,0.84-0.77c0.41-0.33,0.84-0.63,1.28-0.92c0.51-0.3,1.03-0.57,1.57-0.82
			c0.64-0.28,1.31-0.52,1.98-0.72c0,0,0,0,0.01,0l0,0c0.05-0.01,0.1-0.03,0.14-0.04c-0.03,0.01-0.06,0.02-0.09,0.03
			c0.61-0.17,1.22-0.33,1.84-0.44c0,0,0.01,0,0.02,0h0c0.34-0.05,0.68-0.09,1.02-0.11c0.36-0.01,0.71,0,1.07,0.03
			c0.01,0,0.01,0,0.02,0c0.01,0,0.02,0,0.03,0c0.45,0.05,0.89,0.12,1.33,0.21c0.22,0.05,0.44,0.12,0.65,0.18
			c0.32,0.18,0.64,0.38,0.94,0.59c0.5,0.37,0.98,0.78,1.44,1.21c0.37,0.34,0.72,0.69,1.06,1.06c0.17,0.18,0.33,0.37,0.51,0.55
			c0.15,0.15,0.32,0.29,0.49,0.41c0.05,0.07,0.1,0.15,0.14,0.22c0.13,0.21,0.25,0.43,0.37,0.65c0.08,0.6,0.33,1.15,0.65,1.66
			c0.27,0.43,0.63,0.9,1.07,1.16c0.56,0.33,1.21,0.43,1.83,0.2c0.32-0.12,0.61-0.31,0.84-0.55c0.22-0.23,0.43-0.48,0.64-0.72
			c0.12-0.12,0.24-0.22,0.36-0.33c0.17-0.13,0.35-0.26,0.53-0.38c0.31-0.18,0.64-0.35,0.98-0.5c0.28-0.12,0.56-0.22,0.84-0.31
			c0.29-0.08,0.58-0.15,0.88-0.2c0.23-0.03,0.46-0.05,0.68-0.06c0.69-0.02,1.38,0.01,2.08,0.07c0.26,0.03,0.52,0.07,0.78,0.12
			c0.36,0.09,0.71,0.21,1.06,0.33c0.37,0.14,0.72,0.3,1.07,0.47c0.21,0.12,0.41,0.25,0.61,0.39c0.26,0.2,0.51,0.41,0.75,0.62
			c0.21,0.21,0.42,0.43,0.61,0.66c0.18,0.24,0.36,0.49,0.52,0.74c0.21,0.36,0.41,0.72,0.58,1.09c0.15,0.35,0.28,0.71,0.39,1.07
			c0.09,0.34,0.17,0.68,0.24,1.03c0.05,0.35,0.08,0.69,0.09,1.04c0.01,0.35,0,0.69-0.02,1.04c-0.05,0.35-0.11,0.69-0.18,1.04
			c-0.12,0.49-0.27,0.97-0.43,1.45c-0.22,0.55-0.46,1.09-0.73,1.62c-0.28,0.52-0.59,1.01-0.92,1.49c-0.21,0.28-0.43,0.55-0.67,0.81
			c-0.22,0.22-0.45,0.44-0.69,0.64c-0.36,0.28-0.73,0.54-1.1,0.78c-0.38,0.22-0.76,0.43-1.16,0.61c-0.26,0.11-0.52,0.21-0.79,0.29
			c-0.28,0.08-0.56,0.14-0.85,0.2c-0.36,0.05-0.72,0.08-1.09,0.11c-0.49,0.01-0.97,0-1.46-0.04c0,0,0,0,0,0c-0.02,0-0.04,0-0.07,0
			l0,0c0,0-0.01,0-0.01,0c-0.01,0-0.01,0-0.02,0c-0.66-0.07-1.32-0.17-1.98-0.31c-0.48-0.12-0.94-0.25-1.41-0.41
			c-0.73-0.28-1.47-0.58-2.17-0.93c-0.68-0.37-1.35-0.78-1.99-1.23c-0.19-0.14-0.37-0.29-0.54-0.45c-0.44-0.42-0.88-0.84-1.39-1.19
			c-0.51-0.35-1.08-0.59-1.69-0.71c-0.52-0.1-1.05-0.09-1.57-0.09c-0.55,0-1.08,0.01-1.62,0.03h0c-0.03,0-0.06,0-0.08,0
			c-0.01,0-0.03,0-0.04,0c-0.01,0-0.01,0-0.02,0c-0.06,0-0.12,0-0.18,0c-0.02-0.01-0.04-0.01-0.06-0.02
			c0.02,0.01,0.03,0.01,0.05,0.02c-0.25-0.1-0.5-0.18-0.75-0.28c-0.42-0.16-0.85-0.29-1.27-0.43c-0.54-0.18-1.07-0.35-1.61-0.55
			c-0.88-0.34-1.74-0.72-2.58-1.17C407.26,199.22,406.88,199,406.51,198.76z M347.57,227.9c1.17-0.86,2.36-1.68,3.61-2.42
			c1.34-0.76,2.73-1.43,4.16-2.03c3.23-1.31,6.58-2.25,9.94-3.18c0.02-0.01,0.04-0.01,0.06-0.02c0.03-0.01,0.06-0.01,0.09-0.02
			c1.32-0.35,2.66-0.62,4-0.89c1.26-0.25,2.52-0.52,3.79-0.7c1.77-0.22,3.53-0.41,5.29-0.65c1.49-0.2,2.99-0.44,4.48-0.7
			c1.53-0.28,3.04-0.6,4.57-0.88c1.54-0.27,3.08-0.52,4.59-0.96c1.36-0.4,2.71-0.85,4.02-1.4c0.34-0.14,0.68-0.29,1.03-0.43
			c2.41-1,4.76-2.16,6.82-3.78c0.74-0.58,1.45-1.19,2.16-1.8c0.58-0.5,1.12-1.02,1.66-1.56c0,0,0.01-0.01,0.01-0.01
			c0.02-0.02,0.04-0.04,0.06-0.06c0.39-0.39,0.77-0.79,1.13-1.21c0.69,0.19,1.4,0.32,2.13,0.38c0.94,0.08,1.91,0.1,2.86,0
			c0.37-0.04,0.74-0.09,1.11-0.14c0.3-0.04,0.6-0.1,0.91-0.12c0.08,0,0.17,0,0.26,0.01c0.08,0.01,0.15,0.02,0.22,0.03
			c0.02,0,0.04,0.01,0.05,0.01c0.01,0.01,0.03,0.02,0.04,0.03c0.01,0.01,0.03,0.02,0.04,0.04c0.03,0.04,0.07,0.07,0.1,0.1
			c0.09,0.13,0.18,0.26,0.27,0.38c0.16,0.22,0.32,0.43,0.5,0.64c0.32,0.36,0.67,0.69,1.04,1.01c0.2,0.17,0.41,0.33,0.62,0.49
			c-0.21,0.45-0.42,0.9-0.62,1.35c-0.46,1.04-0.93,2.06-1.43,3.07c-0.08-0.2-0.16-0.39-0.25-0.58c-0.77-1.69-2.03-3.24-3.68-4.13
			c-0.66-0.37-1.4-0.61-2.15-0.71c-0.26-0.04-0.51-0.06-0.76-0.04c-0.1,0-0.19,0.01-0.29,0.04c-0.09,0.02-0.18,0.05-0.26,0.1
			c-0.05,0.03-0.08,0.06-0.12,0.1c0,0-0.01,0.01-0.01,0.02c-0.01,0.01-0.01,0.01-0.02,0.02c-0.17,0.24-0.13,0.57,0.11,0.76
			c0.12,0.1,0.26,0.17,0.41,0.22c0.24,0.1,0.49,0.19,0.73,0.29c0.14,0.07,0.28,0.13,0.42,0.21c0.01,0,0.01,0.01,0.01,0.01
			c0.35,0.22,0.68,0.45,1.01,0.71c0.2,0.16,0.38,0.33,0.56,0.51c0.33,0.34,0.63,0.71,0.92,1.08c0,0,0,0,0,0
			c0.01,0.01,0.01,0.02,0.02,0.03c0.01,0.01,0.01,0.02,0.02,0.03c0.17,0.25,0.34,0.5,0.49,0.75c0.17,0.3,0.33,0.61,0.46,0.93
			c0.13,0.33,0.25,0.66,0.34,0.99c0.08,0.3,0.14,0.6,0.19,0.91c0.04,0.31,0.07,0.62,0.11,0.93c-0.34,0.56-0.71,1.11-1.11,1.64
			c-0.69,0.88-1.42,1.72-2.21,2.51c-0.36,0.34-0.72,0.68-1.1,1.01c0-0.57-0.06-1.15-0.19-1.7c-0.1-0.47-0.22-0.93-0.39-1.38
			c-0.17-0.44-0.37-0.86-0.6-1.28c0,0,0,0,0.01,0.01c-0.41-0.72-0.9-1.36-1.48-1.95c-0.6-0.6-1.26-1.14-2-1.55
			c-0.69-0.39-1.48-0.71-2.27-0.79c-0.58-0.06-1.17-0.03-1.74,0.11c-0.25,0.06-0.69,0.17-0.75,0.48c-0.04,0.27,0.29,0.37,0.49,0.42
			c0.27,0.07,0.55,0.11,0.83,0.18c0.13,0.04,0.25,0.08,0.37,0.13c0.22,0.1,0.43,0.22,0.63,0.34c0,0,0,0,0.01,0
			c0.29,0.18,0.59,0.36,0.86,0.57c0.26,0.21,0.5,0.45,0.74,0.68c0.2,0.21,0.39,0.42,0.57,0.65c0.21,0.29,0.42,0.59,0.6,0.9
			c0.35,0.64,0.67,1.3,0.96,1.98l0,0c0.12,0.31,0.23,0.62,0.32,0.94c0.07,0.29,0.13,0.58,0.17,0.87c0.06,0.54,0.07,1.08,0.09,1.63
			c0.01,0.27,0.11,0.51,0.27,0.72c-1.11,0.78-2.26,1.48-3.43,2.16c-0.73,0.42-1.45,0.83-2.19,1.22c0-0.18-0.01-0.35-0.04-0.53
			c-0.15-1.18-0.53-2.32-1.11-3.37c-0.48-0.84-1.09-1.59-1.8-2.25c-0.65-0.6-1.35-1.15-2.15-1.55c-0.69-0.34-1.44-0.56-2.21-0.55
			c-0.23,0-0.46,0.03-0.68,0.1c-0.09,0.03-0.18,0.07-0.26,0.13c-0.06,0.04-0.11,0.08-0.15,0.14c-0.01,0.01-0.03,0.05-0.04,0.07
			c0,0,0,0,0,0c0,0.01,0,0.01-0.01,0.02c-0.17,0.37,0.29,0.61,0.59,0.75c0.01,0,0.02,0.01,0.03,0.01c0.3,0.13,0.59,0.28,0.87,0.44
			c0.01,0.01,0.03,0.01,0.04,0.02c0.01,0.01,0.01,0.01,0.02,0.01c0.18,0.11,0.36,0.24,0.54,0.37c0.39,0.31,0.76,0.65,1.12,1
			c0.2,0.2,0.37,0.41,0.55,0.63c0.2,0.27,0.38,0.54,0.55,0.83c0.25,0.44,0.47,0.89,0.67,1.35c0.12,0.29,0.23,0.58,0.32,0.87
			c0.08,0.34,0.16,0.69,0.21,1.04c0.03,0.26,0.05,0.51,0.07,0.77c-0.01,0.21-0.02,0.42-0.04,0.63c-0.03,0.19-0.07,0.37-0.1,0.56
			c-1.58,0.72-3.17,1.4-4.77,2.07c-2.93,1.21-5.91,2.29-8.89,3.35c0-0.06,0-0.13,0-0.19c0.01-0.74-0.11-1.47-0.31-2.17
			c-0.28-1.03-0.76-2-1.39-2.86c-0.01-0.01-0.03-0.03-0.04-0.04c0,0-0.01-0.01-0.01-0.02c-0.92-1.17-2.18-2.09-3.54-2.67
			c-0.61-0.25-1.23-0.42-1.88-0.52c-0.47-0.06-0.95-0.09-1.43-0.06c-0.42,0.03-0.84,0.08-1.24,0.19c-0.3,0.08-0.59,0.17-0.88,0.29
			c-0.14,0.06-0.29,0.16-0.36,0.3l0,0c-0.22,0.16-0.03,0.48,0.18,0.42c0.08,0.04,0.17,0.07,0.26,0.09c0.2,0.04,0.39,0.08,0.59,0.13
			c0.03,0.01,0.05,0.01,0.08,0.02c0.17,0.04,0.34,0.08,0.51,0.13c0.49,0.13,0.97,0.31,1.43,0.51c0.01,0,0.02,0.01,0.03,0.01
			c0,0,0,0,0,0c0,0,0,0,0.01,0.01c0,0,0,0,0,0c0,0,0,0-0.01,0c0,0,0,0,0,0c0,0,0,0,0.01,0c0,0,0.01,0,0.01,0.01
			c0.01,0,0.03,0.01,0.04,0.01c0.01,0,0.01,0.01,0.02,0.01c0.2,0.09,0.4,0.18,0.59,0.29c-0.01-0.01-0.03-0.02-0.05-0.03
			c0.01,0.01,0.03,0.01,0.04,0.02c0.59,0.37,1.15,0.77,1.7,1.19c0.34,0.27,0.67,0.56,0.97,0.86c0.22,0.24,0.44,0.49,0.65,0.75
			c0.14,0.2,0.28,0.4,0.41,0.61c0,0,0.01,0.01,0.01,0.01c0,0.01,0.01,0.01,0.01,0.02c0.11,0.21,0.21,0.42,0.3,0.63
			c0.08,0.22,0.16,0.43,0.22,0.66c0.07,0.27,0.13,0.55,0.17,0.83c0.03,0.22,0.04,0.45,0.05,0.68c-0.01,0.24-0.02,0.47-0.05,0.71
			c-0.01,0.07-0.02,0.13-0.03,0.2c-1.51,0.53-3.02,1.06-4.52,1.6c-2.35,0.85-4.67,1.8-6.92,2.89c-0.23-0.76-0.61-1.48-1.04-2.14
			c-0.79-1.2-1.78-2.25-2.9-3.14c0,0,0,0,0,0c0,0,0-0.01-0.01-0.01c0,0,0,0,0,0c-0.04-0.03-0.07-0.05-0.1-0.08c0,0,0,0-0.01-0.01
			c0,0,0,0-0.01,0c-1.1-0.85-2.33-1.57-3.69-1.93c-0.62-0.16-1.26-0.27-1.89-0.32c0.51-0.31,1.02-0.62,1.53-0.92
			c0.01,0,0.02-0.01,0.03-0.01c0.02-0.01,0.03-0.02,0.05-0.03c0.01,0,0.02-0.01,0.03-0.01c0.04-0.02,0.08-0.04,0.11-0.06
			c2.45-1.39,4.99-2.58,7.58-3.66c0,0,0,0-0.01,0c1.85-0.76,3.71-1.48,5.58-2.2c1.64-0.64,3.29-1.27,4.91-1.98
			c1.61-0.7,3.21-1.43,4.81-2.17c1.54-0.72,3.06-1.47,4.54-2.3c0.62-0.34,1.23-0.7,1.83-1.07c0.27-0.17,0.58-0.34,0.8-0.58l0,0
			c0,0,0,0,0,0c0,0,0.01,0,0.01,0c0,0,0.01,0,0.01,0c0.21-0.06,0.25-0.41-0.01-0.45c-0.07-0.01-0.13,0-0.18,0.03
			c-0.22,0-0.46,0.08-0.67,0.14c-0.37,0.11-0.72,0.24-1.09,0.36c-1.11,0.39-2.23,0.76-3.34,1.16c-2.49,0.89-5,1.74-7.52,2.56
			c-3.26,1.05-6.5,2.17-9.72,3.34c-1.69,0.61-3.36,1.24-5.02,1.92c-1.67,0.69-3.35,1.38-4.97,2.19c-3.43,1.71-6.67,3.83-9.68,6.18
			c-2.84,2.21-5.51,4.63-7.87,7.35c-2.37,2.73-4.6,5.62-6.54,8.68c-1.79,2.83-3.25,5.84-4.57,8.92c-0.77,1.82-1.43,3.69-1.95,5.59
			c-0.48,1.76-0.92,3.52-1.21,5.31c-0.49,3.01-0.72,6.11-0.35,9.15c0.07,0.57,0.14,1.14,0.24,1.71c-1.27,0.2-2.53,0.44-3.77,0.72
			c-0.98,0.22-1.97,0.46-2.95,0.73c0.09-0.42,0.19-0.84,0.28-1.26c0.93-4,1.96-7.97,3.13-11.9c1.21-4.07,2.58-8.08,4.06-12.06
			c1.42-3.73,2.92-7.44,4.49-11.12c1.25-2.95,2.53-5.87,3.83-8.8c1.22-1.35,2.52-2.64,3.81-3.92
			C344.04,230.87,345.74,229.31,347.57,227.9z M242.81,179.23c-2.6,0.42-5.25,0.62-7.88,0.74c-4.45,0.17-8.89,0.09-13.32-0.3
			c-3.8-0.38-7.59-1.01-11.31-1.86c-0.01,0-0.03,0-0.04-0.01c-6.19-1.47-12.28-3.47-18.23-5.71c-4.9-1.86-9.66-4.02-14.28-6.49
			c-2.92-1.6-5.81-3.28-8.66-5.01c-3.01-1.82-6.02-3.66-8.94-5.62c-3.93-2.9-7.77-5.99-11.37-9.3c-1.87-1.78-3.66-3.63-5.32-5.61
			c-1.09-1.35-2.12-2.75-3.07-4.21c-0.76-1.23-1.45-2.49-2.07-3.79c-0.46-1.03-0.87-2.07-1.23-3.14c-0.23-0.76-0.44-1.53-0.6-2.31
			c-0.05-0.33-0.08-0.65-0.1-0.97c-0.01-0.57,0-1.14,0.04-1.71c0.05-0.49,0.13-0.98,0.23-1.46c0.15-0.59,0.34-1.17,0.55-1.75
			c0.41-1.05,0.89-2.07,1.42-3.07c1.6-2.86,3.59-5.5,5.44-8.2c2.23-3.26,4.4-6.55,6.45-9.93c3.39-5.59,6.58-11.3,9.86-16.96
			c2.5-4.32,5.1-8.57,7.99-12.63c2.5-3.43,5.19-6.71,8.08-9.81c2.83-2.99,5.88-5.76,9.05-8.4c2.92-2.4,5.96-4.64,9.15-6.69
			c4.82-3.01,9.84-5.74,14.98-8.19c3.26-1.48,6.6-2.76,10-3.87c4.21-1.28,8.51-2.26,12.84-3.05c0.01,0,0.01,0,0.02,0
			c0,0,0.01,0,0.01,0c0,0,0,0,0,0c0,0,0,0,0,0c0,0,0,0,0,0c0.05-0.01,0.09-0.02,0.14-0.03c0.02,0,0.04-0.01,0.07-0.01
			c0.05-0.01,0.11-0.02,0.17-0.03c0,0,0,0,0,0c0,0,0,0,0,0c0,0,0,0,0,0c0,0,0,0,0,0c0.02,0,0.04-0.01,0.06-0.01
			c0.04-0.01,0.07-0.01,0.11-0.02c0.01,0,0.01,0,0.02,0c0.31-0.05,0.63-0.11,0.94-0.16c1.11-0.19,2.22-0.37,3.33-0.54
			c4.65-0.71,9.33-1.05,14.03-1.27c5.08-0.17,10.14,0,15.21,0.42c2.14,0.21,4.27,0.44,6.4,0.77c2.42,0.38,4.83,0.85,7.23,1.39
			c5.16,1.25,10.23,2.78,15.2,4.65c3.92,1.55,7.72,3.3,11.43,5.28c3.53,1.96,6.93,4.1,10.23,6.43c3.65,2.69,7.13,5.57,10.46,8.64
			c3.04,2.9,5.91,5.95,8.61,9.17c2.65,3.27,5.11,6.67,7.38,10.21c2.27,3.64,4.32,7.4,6.16,11.27c1.9,4.15,3.58,8.38,4.99,12.73
			c1.46,4.73,2.7,9.54,3.59,14.41c0.01,0.05,0.01,0.1,0.03,0.14c0,0.03,0.01,0.06,0.01,0.08c0.01,0.05,0.02,0.11,0.03,0.16
			c-0.01-0.03-0.01-0.06-0.02-0.09c0.03,0.17,0.06,0.34,0.09,0.52c0.77,4.59,1.25,9.2,1.47,13.84c0.22,6.25,0.02,12.49-0.52,18.72
			c-0.69,7.08-1.83,14.12-3.42,21.06c-0.04,0.17-0.08,0.33-0.12,0.5c-2.01,8.43-4.59,16.7-7.62,24.82c-1.7,4.47-3.5,8.91-5.37,13.31
			c-5.32,12.5-11.19,24.75-16.43,37.27c-2.54,6.07-4.94,12.2-6.95,18.46c-2.09,6.5-3.82,13.1-5.24,19.77
			c-2.8,13.12-4.63,26.57-3.89,40c0.33,6.08,1.52,12.15,3.64,17.87c1.03,2.78,2.36,5.51,3.89,8.06c0.25,0.42,0.51,0.85,0.79,1.26
			c-0.94,0.49-1.88,0.97-2.84,1.43c-0.12,0.05-0.23,0.1-0.34,0.16c-2.88,1.31-5.83,2.46-8.85,3.42c-0.04,0.01-0.07,0.02-0.11,0.03
			c-5.01,1.55-10.12,2.68-15.28,3.61c-7.8,1.33-15.7,2.13-23.61,2.55c-0.55-1.46-1.15-2.9-1.69-4.37c-0.84-2.42-1.48-4.88-2.04-7.38
			c-0.71-3.45-1.18-6.93-1.5-10.44c-0.25-3.46-0.28-6.93-0.11-10.39c0.22-3.33,0.63-6.64,1.21-9.92c0.49-2.57,1.05-5.12,1.7-7.65
			c0.58-2.27,1.17-4.52,1.83-6.76c0.33-1.13,0.67-2.24,1.02-3.36c0.36-1.11,0.72-2.21,1.09-3.32c0.73-2.17,1.49-4.34,2.29-6.49
			c1.55-4.2,3.21-8.35,4.87-12.5c1.72-4.28,3.33-8.61,4.88-12.95c3.08-8.64,6.58-17.14,8.7-26.09c1.06-4.45,1.86-8.96,2.55-13.47
			c0.34-2.27,0.66-4.54,0.91-6.83c0.12-1.1,0.22-2.2,0.32-3.29c0.09-1.07,0.21-2.15,0.23-3.22c0.05-2.27-0.04-4.56-0.13-6.83
			c-0.08-2.18-0.18-4.36-0.31-6.54c-0.25-4.31-0.65-8.61-1.38-12.86c-0.33-1.89-0.72-3.76-1.26-5.6c-0.32-1.1-0.67-2.2-1.09-3.26
			c-0.35-0.89-0.76-1.75-1.18-2.61c-0.71-1.44-1.51-2.86-2.4-4.19c-0.37-0.55-0.76-1.09-1.16-1.62c-0.22-0.29-0.44-0.62-0.69-0.9
			c0.33-0.42,0.65-0.85,0.97-1.28c0.98-1.36,1.94-2.73,2.85-4.14c0.92-1.45,1.85-2.89,2.66-4.4c0,0,0-0.01,0-0.01
			c0-0.01,0.01-0.02,0.01-0.03c0.01-0.02,0.02-0.05,0.04-0.07c0.01-0.03,0.03-0.05,0.04-0.08c0.7-1.25,1.48-2.45,2.22-3.68
			c0.67-1.11,1.31-2.25,1.95-3.39c1.06-1.89,2.19-3.76,3.09-5.74c0.37-0.82-0.8-1.59-1.35-0.85c-0.76,1.03-1.43,2.14-2.15,3.2
			c-0.79,1.18-1.6,2.35-2.42,3.5c-0.08,0.1-0.16,0.21-0.23,0.32c-0.65,0.9-1.3,1.79-1.95,2.69c-0.39,0.53-0.78,1.06-1.19,1.57
			c-0.4,0.51-0.84,0.97-1.25,1.47c-1.24,1.48-2.52,2.95-3.84,4.37c-1.28,1.34-2.66,2.61-4.08,3.8c-1.62,1.31-3.34,2.56-5.09,3.7
			c-0.83,0.51-1.68,0.98-2.56,1.39c-0.89,0.42-1.75,0.88-2.63,1.3c-0.81,0.36-1.62,0.69-2.44,1.04c-0.96,0.41-1.9,0.85-2.87,1.26
			c-2.2,0.92-4.45,1.74-6.72,2.48C252.57,177.24,247.7,178.28,242.81,179.23z M285.23,201.83c0,0-0.01,0.01-0.01,0.01c0,0,0,0,0,0
			c0,0,0,0-0.01,0c0,0,0,0,0,0c0,0,0,0,0,0c0,0-0.01,0-0.01,0.01c0,0,0,0,0-0.01c-0.02,0.02-0.04,0.04-0.07,0.06
			c-0.02,0.01-0.03,0.03-0.05,0.04c0,0,0,0.01-0.01,0.01c0,0,0,0-0.01,0.01c-0.01,0.01-0.03,0.02-0.04,0.03
			c-1.25,1.02-2.57,1.95-3.93,2.81c-1.99,1.23-4.05,2.37-6.18,3.35c0,0,0,0,0,0h0c0,0,0,0,0,0c-0.01,0-0.01,0-0.02,0.01
			c0,0,0,0,0.01-0.01c-0.01,0.01-0.02,0.01-0.04,0.02c-0.01,0.01-0.03,0.01-0.04,0.02c-0.08,0.04-0.17,0.08-0.25,0.12
			c-1.32,0.59-2.66,1.11-4.04,1.53c0.02,0,0.04-0.01,0.06-0.01c-0.04,0.01-0.08,0.03-0.12,0.03c0,0,0,0-0.01,0h0c0,0-0.01,0-0.01,0
			c-1.49,0.43-3,0.76-4.53,1.03c-0.02,0-0.05,0.01-0.07,0.01c-0.01,0-0.02,0-0.03,0.01c0,0,0,0,0,0h0c-0.01,0-0.02,0-0.03,0.01
			c0,0,0.01,0,0.01-0.01c-0.12,0.02-0.25,0.04-0.37,0.06c-2.3,0.37-4.63,0.53-6.95,0.61c0.2-1.93,0.33-3.86,0.36-5.8
			c0.02-1.7,0-3.41-0.16-5.1c0-0.1-0.01-0.2-0.03-0.29c-0.05-0.53-0.12-1.06-0.19-1.58c-0.32-2.15-0.7-4.32-1.36-6.39
			c-0.77-2.44-1.75-4.81-3.26-6.88c-0.04-0.05-0.07-0.1-0.1-0.14c3.73-0.92,7.42-2.02,11.02-3.4c2.36-0.9,4.76-1.86,6.92-3.19
			c1.01-0.62,2-1.27,2.97-1.95c0.92-0.63,1.75-1.36,2.58-2.1c1.51-1.35,3-2.7,4.35-4.21c0.35-0.39,0.69-0.79,1.04-1.19
			c0.21,0.3,0.41,0.61,0.6,0.92c0.43,0.7,0.84,1.41,1.22,2.15c0.61,1.19,1.12,2.42,1.59,3.68c0.76,2.14,1.4,4.32,1.89,6.53
			c0.01,0.03,0.01,0.06,0.02,0.09c0.25,1.16,0.47,2.33,0.64,3.51c0.19,1.32,0.31,2.65,0.42,3.98c0.19,2.49,0.28,4.99,0.3,7.49
			c-0.51,0.64-1.04,1.27-1.59,1.87c-0.77,0.8-1.61,1.55-2.46,2.26C285.23,201.82,285.23,201.82,285.23,201.83
			C285.23,201.82,285.23,201.82,285.23,201.83C285.23,201.82,285.23,201.82,285.23,201.83
			C285.23,201.82,285.23,201.82,285.23,201.83z M254.55,233.06c1.29-4.54,2.17-9.17,2.89-13.83c0.32-2.06,0.62-4.13,0.87-6.2
			c1.65,0.18,3.33,0.28,5,0.28c1.98,0,3.95-0.14,5.89-0.45c0,0,0,0,0.01,0c1.49-0.24,2.99-0.56,4.44-0.98
			c1.53-0.44,3-1.01,4.45-1.66c1.26-0.57,2.48-1.23,3.67-1.94c1.16-0.69,2.31-1.42,3.4-2.21c1.5-1.09,2.91-2.31,4.14-3.69
			c-0.02,3.16-0.1,6.32-0.24,9.47c-0.33,4.26-0.91,8.5-1.65,12.71c0.02-0.11,0.04-0.21,0.06-0.32c-0.05,0.26-0.1,0.52-0.14,0.78
			c0,0,0-0.01,0-0.01c0,0.03-0.01,0.05-0.01,0.08c-0.01,0.06-0.02,0.12-0.04,0.18c-0.73,3.83-1.62,7.64-2.79,11.37
			c-0.5,1.51-1.01,3.03-1.55,4.53c-0.59,0.43-1.17,0.89-1.71,1.39c-0.33,0.3-0.65,0.63-0.99,0.92c-0.29,0.26-0.59,0.51-0.89,0.76
			c-1.16,0.94-2.42,1.74-3.68,2.54c-0.87,0.53-1.77,1.02-2.66,1.51c-0.95,0.52-1.9,1.03-2.88,1.49c-1.38,0.62-2.76,1.23-4.2,1.68
			c-0.04,0.01-0.09,0.03-0.13,0.04c-1.24,0.35-2.48,0.64-3.74,0.86c-0.04,0.01-0.07,0.01-0.11,0.02c-0.01,0-0.01,0-0.02,0
			c-0.05,0.01-0.11,0.02-0.16,0.03c-1.74,0.25-3.51,0.39-5.27,0.45c-1.65,0.03-3.3-0.04-4.94-0.22c-0.77-0.1-1.53-0.21-2.3-0.33
			c-0.59-0.09-1.19-0.17-1.78-0.28C250.22,245.85,252.7,239.55,254.55,233.06z M233.82,280.51c4.01-8.19,8.05-16.37,11.9-24.64
			c0.03-0.06,0.05-0.11,0.08-0.17c-0.01,0.01-0.01,0.02-0.02,0.03c0.01-0.03,0.03-0.06,0.04-0.09c0.02-0.04,0.04-0.08,0.06-0.12
			c0.41-0.88,0.81-1.76,1.21-2.65c0.1,0.05,0.2,0.11,0.3,0.16c0.67,0.35,1.36,0.66,2.06,0.93c1.73,0.68,3.55,1.17,5.38,1.41
			c0.84,0.11,1.68,0.16,2.52,0.16c1.38,0,2.77-0.13,4.14-0.31c2.23-0.3,4.44-0.75,6.59-1.4c0.03-0.01,0.05-0.02,0.08-0.02
			c1.57-0.47,3.12-1.05,4.64-1.68c1.01-0.42,2-0.87,2.98-1.36c1.02-0.52,2.04-1.04,3-1.66c0.5-0.33,1.01-0.66,1.51-1
			c-1.57,3.85-3.28,7.65-5.03,11.43c-0.01,0.03-0.03,0.06-0.04,0.09c-0.02,0.04-0.04,0.07-0.05,0.11c-0.01,0.02-0.02,0.04-0.03,0.06
			c-0.42,0.88-0.83,1.75-1.24,2.62c-2.04,4.28-3.94,8.62-5.73,13.01c-1.09,2.7-2.17,5.4-3.21,8.12c-0.34,0.28-0.67,0.57-1.01,0.85
			c-0.4,0.33-0.81,0.65-1.2,0.98c-0.32,0.28-0.63,0.56-0.96,0.84c-1.27,1.02-2.67,1.9-4.05,2.77c-0.67,0.41-1.35,0.79-2.03,1.17
			c-0.69,0.39-1.4,0.77-2.13,1.1c-1.34,0.6-2.73,1.13-4.13,1.56c-0.02,0.01-0.05,0.01-0.07,0.02c-0.04,0.01-0.07,0.02-0.11,0.03
			c-1.61,0.47-3.27,0.81-4.93,1.08c-1.52,0.24-3.05,0.4-4.59,0.46c-1.55,0.03-3.1-0.05-4.64-0.21c0.01,0,0.03,0,0.04,0.01
			c-1.74-0.2-3.47-0.44-5.18-0.86c-0.04-0.01-0.09-0.02-0.13-0.03c-0.5-0.13-1-0.28-1.49-0.41c-0.14-0.04-0.29-0.07-0.44-0.1
			C229.85,288.68,231.83,284.59,233.82,280.51z M226.47,295.89c0-0.01,0.01-0.02,0.01-0.03c0.04-0.07,0.07-0.15,0.1-0.22
			c0.09-0.2,0.19-0.4,0.28-0.6c0.23-0.49,0.46-0.98,0.69-1.48c0.33,0.25,0.69,0.45,1.05,0.65c1.26,0.67,2.61,1.22,3.96,1.67
			c1.63,0.54,3.31,0.93,5.01,1.14c1.26,0.16,2.52,0.23,3.78,0.23c1.9,0,3.8-0.17,5.69-0.47c0,0,0.01,0,0.01,0
			c2.56-0.42,5.09-1.07,7.56-1.88c2.36-0.77,4.7-1.64,6.96-2.66c0.09-0.04,0.18-0.09,0.28-0.13c-0.58,1.67-1.13,3.34-1.66,5.02
			c-0.01,0.03-0.02,0.05-0.03,0.08c-0.08,0.19-0.13,0.39-0.18,0.59c-1.78,5.67-3.32,11.41-4.45,17.25
			c-0.37,1.93-0.68,3.87-0.93,5.81c-0.37,0.35-0.74,0.69-1.13,1.02c-1.05,0.84-2.2,1.57-3.34,2.29c-1.11,0.68-2.26,1.28-3.44,1.83
			c-0.01,0.01-0.02,0.01-0.03,0.01c-0.01,0-0.02,0.01-0.04,0.01c-2.13,0.96-4.31,1.77-6.55,2.46c-0.04,0.01-0.07,0.02-0.11,0.03
			c-0.08,0.03-0.17,0.05-0.25,0.08c-1.21,0.35-2.42,0.68-3.65,0.95c-1.24,0.27-2.49,0.48-3.74,0.69c-1.55,0.24-3.09,0.42-4.65,0.46
			c-1.72,0.02-3.44-0.01-5.15-0.16c-0.08-0.01-0.16-0.02-0.24-0.03c-0.03,0-0.05,0-0.08-0.01c-0.05-0.01-0.1-0.01-0.15-0.02
			c-1.85-0.22-3.69-0.61-5.5-1.05c-0.46-0.12-0.92-0.23-1.38-0.33c-0.33-0.07-0.68-0.16-1.02-0.16c-0.12,0-0.24,0.02-0.33,0.08
			c0.52-2.06,1.1-4.11,1.74-6.13c0.01-0.02,0.01-0.03,0.01-0.05c0.27-0.83,0.54-1.65,0.82-2.47
			C219.26,312.02,222.77,303.9,226.47,295.89z M241.5,358.35c-0.01,0-0.03,0.01-0.04,0.01c0,0,0,0,0,0
			c-0.04,0.01-0.08,0.03-0.12,0.03c0,0.01,0,0.01-0.01,0.01c-0.22,0.06-0.44,0.13-0.67,0.2c-0.06,0.02-0.12,0.04-0.18,0.06
			c-0.05,0.01-0.09,0.03-0.14,0.04h0c0,0-0.01,0-0.01,0c-0.17,0.05-0.35,0.1-0.52,0.15c-0.66-0.14-1.32-0.28-1.98-0.43
			c-4.89-1.15-9.68-2.69-14.39-4.44h0c-0.02-0.01-0.04-0.02-0.06-0.03c-0.01,0-0.02-0.01-0.03-0.01c0,0-0.01,0-0.01-0.01
			c-0.04-0.01-0.09-0.03-0.13-0.05c-0.01,0-0.01,0-0.02-0.01c-0.04-0.01-0.08-0.03-0.12-0.05c-2.51-0.96-5.01-1.96-7.47-3.04
			c-1.34-0.58-2.66-1.2-3.97-1.85c0.02-0.92-0.07-1.86-0.07-2.77c-0.01-1.1,0.02-2.19,0.07-3.29c0.16-2.86,0.51-5.7,1.02-8.52
			c0.31-1.65,0.68-3.29,1.09-4.92c0.06,0.11,0.18,0.21,0.28,0.27c0.31,0.2,0.65,0.36,0.98,0.52c0.86,0.42,1.73,0.8,2.62,1.15
			c3.01,1.18,6.23,1.83,9.43,2.19c0.02,0,0.05,0.01,0.07,0.01c0.04,0,0.08,0.01,0.12,0.01c1.43,0.15,2.87,0.22,4.3,0.22
			c0.37,0,0.73,0,1.1-0.01c-0.05,0-0.11,0.01-0.16,0.01c0.08,0,0.16,0,0.25-0.01c2.09-0.06,4.16-0.36,6.21-0.73
			c1.41-0.25,2.8-0.58,4.18-1c1.24-0.38,2.46-0.81,3.68-1.26c2.46-0.92,4.86-2.07,7.1-3.47c0.06-0.04,0.11-0.07,0.17-0.11
			c-0.08,1.47-0.11,2.95-0.11,4.42c-0.08,1.92-0.12,3.84-0.12,5.76c0,1.66,0.02,3.31,0.14,4.97c0.12,1.66,0.31,3.32,0.55,4.97
			c0.17,1.18,0.35,2.37,0.57,3.54c-0.57,0.51-1.12,1.04-1.71,1.53c-0.88,0.71-1.84,1.32-2.79,1.92c0,0,0.01,0,0.01,0
			c-1.19,0.71-2.44,1.3-3.7,1.89c-0.89,0.4-1.78,0.79-2.69,1.15C243.31,357.77,242.41,358.07,241.5,358.35z M250.65,358.3
			c0.81-0.34,1.63-0.69,2.4-1.09c0.6-0.31,1.19-0.66,1.77-1.02c0.4-0.25,0.8-0.49,1.2-0.75c0.1,0.41,0.21,0.83,0.31,1.23
			c0.34,1.27,0.73,2.53,1.14,3.77c-3.5-0.01-6.99-0.15-10.47-0.44c-0.26-0.03-0.51-0.06-0.76-0.09
			C247.73,359.45,249.2,358.89,250.65,358.3z M130.63,317.22c0.05-0.06,0.1-0.13,0.16-0.19c2.62-3.18,5.45-6.19,8.45-9.02
			c0.11-0.1,0.22-0.2,0.33-0.3c2.55-2.35,5.27-4.51,8.08-6.54c2.45-1.71,4.97-3.3,7.6-4.71c0.16-0.08,0.32-0.17,0.48-0.25
			c2.61-1.35,5.27-2.55,8.01-3.6c2.74-1,5.53-1.85,8.36-2.54c0.07-0.01,0.13-0.03,0.21-0.05c0.04-0.01,0.08-0.02,0.12-0.03
			c0.08-0.02,0.17-0.04,0.25-0.06c0.01,0,0.02,0,0.03-0.01c4.98-1.13,10.03-1.91,15.11-2.46c3.68-0.38,7.39-0.62,11.08-0.71
			c3.08-0.08,6.16-0.07,9.24-0.04c1.47,0.1,2.93,0.21,4.39,0.37h0c0.01,0,0.01,0,0.02,0c0.02,0,0.04,0,0.07,0.01
			c0.01,0,0.01,0,0.02,0c1,0.12,1.99,0.25,2.98,0.39c0.96,0.14,1.91,0.31,2.86,0.54c0.02,0.01,0.05,0.01,0.07,0.02
			c0.13,0.04,0.27,0.07,0.41,0.1c0.02,0.01,0.04,0.01,0.07,0.02c0.01,0,0.03,0.01,0.05,0.01h0c0,0,0.01,0,0.01,0c0,0-0.01,0-0.01,0
			c0,0,0.01,0,0.01,0c0,0,0.01,0,0.02,0c0.36,0.09,0.73,0.19,1.09,0.3c0.17,0.05,0.34,0.1,0.51,0.15c-0.58,1.22-1.14,2.43-1.71,3.65
			l0,0c0,0.01-0.01,0.02-0.01,0.03c-0.1,0.23-0.21,0.46-0.32,0.69c-0.15,0.25-0.31,0.51-0.46,0.76c-1.53,2.49-2.97,5.03-4.34,7.61
			c-1.45,2.73-2.86,5.49-4.16,8.29c-0.62,1.32-1.21,2.65-1.77,3.99c-1.15,2.75-2.21,5.53-3.16,8.35c-1.05,3.14-1.91,6.33-2.66,9.55
			c-0.71,3.06-1.27,6.14-1.63,9.26c-0.06,0.56-0.12,1.12-0.17,1.69c-1.14-0.73-2.27-1.49-3.38-2.28c-0.04-0.03-0.08-0.05-0.11-0.08
			c0,0-0.01,0-0.01-0.01c0,0-0.01,0-0.01-0.01c-0.01,0-0.01-0.01-0.02-0.01c0,0-0.01,0-0.01-0.01c-0.07-0.05-0.14-0.1-0.21-0.15
			c-0.01,0-0.02-0.01-0.03-0.02c-1.47-1.07-2.91-2.19-4.3-3.35c-1.78-1.49-3.61-2.93-5.31-4.51c-0.02-0.02-0.04-0.04-0.06-0.06
			c-0.02-0.01-0.03-0.03-0.05-0.04c-0.01-0.01-0.02-0.01-0.03-0.02c0,0,0,0-0.01-0.01c-0.25-0.24-0.51-0.48-0.76-0.71
			c-0.62-0.58-1.23-1.17-1.87-1.72c-0.47-0.41-0.97-0.79-1.42-1.21c-0.16-0.15-0.33-0.31-0.49-0.46c0,0,0,0-0.01-0.01
			c0,0-0.01,0-0.01-0.01c-0.2-0.19-0.38-0.39-0.57-0.57c-0.03-0.07-0.06-0.13-0.1-0.19c-0.16-0.25-0.56-0.03-0.41,0.22
			c0.04,0.06,0.07,0.12,0.09,0.18c0.03,0.13,0.05,0.26,0.1,0.39c0.43,1.28,0.98,2.56,1.57,3.78c0.43,0.9,0.93,1.77,1.43,2.63
			c0.59,1.01,1.17,2.02,1.82,2.99c2.12,3.14,4.52,6.08,7.27,8.69c4.18,3.93,8.99,7.17,14.03,9.91c0.01,0,0.01,0.01,0.03,0.01
			c0.01,0,0.01,0.01,0.02,0.01c0.01,0.01,0.02,0.01,0.04,0.02c0.07,0.04,0.13,0.07,0.19,0.11c3.25,1.73,6.62,3.21,10.04,4.59
			c3.44,1.39,6.93,2.66,10.48,3.78c4.6,1.45,9.32,2.66,14.09,3.39c4.69,0.72,9.44,0.93,14.18,1c0.6,0.01,1.21,0.01,1.81,0.01
			c3.74,0,7.48-0.15,11.22-0.36c4.38-0.25,8.74-0.64,13.09-1.14c8.76-1.01,17.53-2.57,25.97-5.19c0.04-0.01,0.07-0.02,0.1-0.03
			c0.09-0.03,0.18-0.06,0.28-0.09c0.03-0.01,0.06-0.02,0.09-0.03c3.37-1.08,6.66-2.34,9.88-3.82c2.58-1.21,5.12-2.49,7.55-4
			c0.03-0.02,0.06-0.04,0.09-0.05c1.63-1.03,3.22-2.1,4.68-3.37c1.72-1.51,3.36-3.12,4.93-4.78c1.47-1.56,2.86-3.18,4.18-4.87
			c0.61-0.78,1.19-1.57,1.69-2.42c0.41-0.68,0.79-1.39,1.16-2.09c0-0.01,0.01-0.01,0.01-0.02c0.01-0.02,0.02-0.03,0.03-0.05
			c0.86-1.59,1.65-3.24,2.32-4.92c0.58-1.45,1.25-2.9,1.62-4.43c0.22-0.9-0.97-1.49-1.5-0.68c-0.49,0.75-0.92,1.53-1.38,2.3
			c-0.45,0.75-0.94,1.47-1.44,2.17c-0.01,0.01-0.01,0.02-0.02,0.03c-0.01,0.01-0.01,0.02-0.02,0.03c-0.02,0.03-0.05,0.06-0.07,0.09
			c-0.76,1.02-1.61,1.98-2.47,2.9c-0.85,0.89-1.79,1.68-2.69,2.53c-1.03,0.97-2.06,1.93-3.14,2.83c-1.62,1.32-3.28,2.56-5.04,3.69
			c-1.23,0.75-2.51,1.4-3.76,2.11c-0.08,0.05-0.17,0.09-0.25,0.14c-0.5-1.08-1.02-2.15-1.53-3.23c-1.04-2.27-1.99-4.56-2.77-6.93
			c-0.71-2.32-1.29-4.67-1.73-7.06c-0.44-2.69-0.7-5.38-0.84-8.1c-0.17-5.07,0.02-10.13,0.45-15.17c0.52-5.4,1.32-10.78,2.33-16.11
			c1.6-0.13,3.18-0.31,4.78-0.48c4.8-0.5,9.59-0.86,14.42-0.83c3.33,0.07,6.64,0.33,9.94,0.77c2.98,0.45,5.92,1.07,8.82,1.86
			c3.06,0.89,6.05,1.98,8.99,3.21c0.11,0.04,0.21,0.09,0.31,0.13c3.4,1.49,6.72,3.16,9.93,5.04c2.16,1.31,4.26,2.7,6.26,4.25
			c1.98,1.62,3.84,3.4,5.62,5.24c1.91,2.04,3.71,4.17,5.37,6.42c0.9,1.26,1.76,2.56,2.55,3.88c0.45,1.12,0.85,2.26,1.21,3.41
			c0,0,0,0,0,0c0,0,0,0,0,0c0,0,0,0,0,0c0,0,0,0,0,0v0l0,0c0,0,0,0,0,0c0,0,0,0,0,0l0,0v0c0,0,0,0.01,0,0.02c0,0,0,0.01,0,0.01
			c0,0,0,0.01,0,0.01c0.02,0.06,0.04,0.12,0.06,0.19c0.54,1.81,0.98,3.63,1.29,5.49c0,0.02,0.01,0.04,0.01,0.07c0,0,0,0,0,0.01
			c0,0,0,0,0,0.01c0,0.01,0,0.01,0,0.02c0.18,1.13,0.33,2.25,0.43,3.38c0.11,1.17,0.17,2.35,0.2,3.53c0.05,2.21-0.04,4.42-0.25,6.62
			c0-0.02,0.01-0.04,0.01-0.07c0,0.04-0.01,0.08-0.01,0.12c0,0.01,0,0.02,0,0.03c-0.18,1.63-0.44,3.25-0.81,4.85c0,0,0,0,0,0.01
			c-0.19,0.77-0.39,1.53-0.59,2.3c0,0,0,0.01,0,0.01c-1.92,1.75-3.89,3.44-5.83,5.19c-2.04,1.84-4.16,3.6-6.38,5.24
			c-0.21,0.16-0.42,0.3-0.63,0.46c-2.28,1.67-4.53,3.39-6.81,5.06c-0.2,0.15-0.4,0.29-0.6,0.44c-2.71,1.98-5.4,4.01-8.23,5.83
			c-2.58,1.66-5.24,3.22-7.93,4.7c-2.03,1.11-4.09,2.19-6.18,3.17c-2.02,0.94-4.07,1.81-6.14,2.62c-2.59,1-5.2,1.96-7.84,2.81
			c-2.74,0.88-5.51,1.67-8.31,2.37c-0.65,0.16-1.3,0.3-1.95,0.45c-6.59,1.47-13.26,2.51-19.95,3.45
			c-6.57,0.93-13.15,1.86-19.75,2.65c-0.02,0-0.04,0.01-0.05,0.01c-0.03,0-0.05,0.01-0.08,0.01c-0.31,0.04-0.62,0.07-0.93,0.11
			c-0.01,0-0.01,0-0.01,0c-7.56,0.88-15.12,1.64-22.71,2.19c-11.87,0.86-23.76,1.57-35.67,1.47c-4.93-0.08-9.85-0.43-14.77-0.84
			c-5.37-0.44-10.73-1.02-16.08-1.77c-2.58-0.37-5.16-0.75-7.74-1.19c-12.43-2.12-24.75-4.9-36.91-8.25
			c-0.05-0.01-0.09-0.03-0.14-0.04c-0.05-0.01-0.1-0.03-0.16-0.04c-0.01,0-0.02,0-0.03-0.01c-0.02,0-0.04-0.01-0.05-0.01
			c-0.09-0.03-0.18-0.05-0.27-0.08c-0.03-0.01-0.05-0.01-0.08-0.02c-3.86-1.08-7.71-2.2-11.51-3.47c-3.85-1.29-7.59-2.83-11.33-4.42
			c-0.02-0.01-0.05-0.02-0.07-0.03c-0.21-0.09-0.41-0.18-0.62-0.26c-0.05-0.02-0.11-0.04-0.16-0.07c-0.01,0-0.03-0.01-0.04-0.01
			c-0.43-0.18-0.86-0.37-1.29-0.56c-0.36-0.28-0.72-0.55-1.08-0.82c-0.82-0.61-1.62-1.24-2.39-1.91c-0.01-0.01-0.02-0.02-0.03-0.03
			c-0.01-0.01-0.02-0.02-0.03-0.03c-1.86-1.63-3.6-3.39-5.25-5.23c-0.01,0-0.01-0.01-0.01-0.01c-0.56-0.64-1.1-1.3-1.62-1.98
			c-0.54-0.71-1.07-1.41-1.58-2.14c-0.47-0.69-0.92-1.42-1.36-2.14c-0.42-0.69-0.82-1.39-1.2-2.11c-0.52-1.04-1-2.1-1.41-3.19
			c-0.11-0.29-0.21-0.58-0.3-0.88c-0.05-0.77-0.07-1.56-0.06-2.33c0.06-1.68,0.26-3.37,0.51-5.03c0.25-1.56,0.51-3.11,0.85-4.64
			c0.35-1.58,0.76-3.14,1.21-4.7c0.65-2.14,1.43-4.23,2.34-6.28c0.01-0.02,0.01-0.03,0.02-0.05c0,0,0,0,0,0
			c0.01-0.01,0.01-0.02,0.02-0.04c0,0,0,0,0,0c0-0.01,0.01-0.01,0.01-0.02v0c0.02-0.03,0.03-0.07,0.05-0.1
			c1.02-2.24,2.23-4.4,3.51-6.5C126.62,322.37,128.57,319.76,130.63,317.22z M121.28,331.79
			C121.28,331.79,121.28,331.79,121.28,331.79c0.01-0.01,0.01-0.02,0.02-0.03C121.3,331.77,121.29,331.78,121.28,331.79
			C121.29,331.79,121.29,331.79,121.28,331.79z M102.5,440.88c-0.22,1.15-0.47,2.32-0.83,3.44c-0.09,0.26-0.2,0.52-0.3,0.79
			c-1.1-0.62-2.19-1.26-3.28-1.91c-3.87-2.38-7.58-4.95-11.14-7.78c-3.77-3.08-7.33-6.39-10.7-9.89c-2.9-3.1-5.6-6.35-8.12-9.77
			c-1.87-2.62-3.62-5.31-5.19-8.12c-1.87-3.5-3.51-7.12-4.99-10.8c-0.81-2.11-1.53-4.24-2.17-6.41c0,0.01,0.01,0.02,0.01,0.04
			c0.49,1.11,1.07,2.17,1.66,3.22c0.61,1.09,1.24,2.16,1.91,3.21c1.55,2.4,3.28,4.68,5.24,6.76c1.32,1.39,2.71,2.7,4.12,4
			c1.55,1.42,3.13,2.81,4.76,4.13c2.4,1.92,4.94,3.64,7.49,5.35c2.27,1.51,4.58,2.95,6.92,4.34c2.44,1.44,4.95,2.73,7.49,3.99
			c1.8,0.89,3.61,1.76,5.43,2.59c0.26,0.77,0.48,1.55,0.69,2.33c0.22,0.82,0.45,1.64,0.64,2.46c0.24,1.14,0.37,2.29,0.47,3.45
			c0,0.01,0,0.02,0,0.04c0-0.01,0-0.01,0-0.01c0,0.01,0,0.03,0,0.05c0,0.02,0.01,0.04,0.01,0.07c0,0,0,0,0,0.01
			c0.07,0.92,0.09,1.85,0.05,2.77C102.65,439.75,102.6,440.32,102.5,440.88z M142.04,457.17c-0.18,0.9-0.4,1.79-0.68,2.66
			c-0.21,0.64-0.44,1.27-0.72,1.89c-2.72-0.86-5.42-1.78-8.11-2.75c-5.44-1.98-10.83-4.09-16.15-6.37
			c-4.07-1.78-8.07-3.72-11.98-5.82c0.14-0.45,0.25-0.92,0.36-1.37c0.27-1.16,0.51-2.32,0.59-3.52c0.11-2.14,0.06-4.31-0.25-6.44
			c-0.16-1.06-0.43-2.11-0.7-3.15c-0.27-1.01-0.58-2.02-0.97-3c-0.02-0.05-0.04-0.09-0.05-0.14c0.2,0.09,0.41,0.18,0.62,0.27
			c3.98,1.72,7.99,3.38,12.07,4.89c3.97,1.47,7.95,2.89,11.96,4.25c3.29,1.12,6.6,2.19,9.92,3.22c0.82,0.25,1.64,0.51,2.46,0.75
			c0.2,0.65,0.42,1.31,0.62,1.97c0.35,1.15,0.66,2.33,0.93,3.5c0.18,0.82,0.3,1.64,0.37,2.47c0.08,1.18,0.12,2.36,0.07,3.54
			C142.33,455.07,142.22,456.13,142.04,457.17z M187.37,468.38c-0.13,0.64-0.29,1.28-0.45,1.92c-0.07,0.27-0.13,0.54-0.21,0.8
			c-3.86-0.33-7.72-0.76-11.57-1.28c-0.01,0-0.03,0-0.04-0.01c-0.11-0.01-0.22-0.03-0.33-0.05c-8.29-1.18-16.46-2.95-24.52-5.18
			c-0.01,0-0.03-0.01-0.04-0.01c-0.05-0.01-0.11-0.03-0.17-0.05c0,0-0.01,0-0.01,0c-0.01,0-0.03-0.01-0.04-0.01
			c-0.02,0-0.03-0.01-0.05-0.01c-0.01,0-0.01,0-0.02,0c-1.58-0.45-3.16-0.9-4.73-1.37c0.03-0.06,0.06-0.12,0.08-0.17
			c0.41-0.89,0.73-1.83,0.98-2.78c0.61-2.27,0.79-4.65,0.64-7c-0.08-1.39-0.29-2.74-0.61-4.09c-0.29-1.23-0.65-2.48-1.12-3.65
			c-0.23-0.58-0.5-1.15-0.76-1.72c1.38,0.38,2.77,0.75,4.17,1.09c7.07,1.73,14.22,3.07,21.38,4.35c4.11,0.73,8.24,1.39,12.39,1.92
			c1.27,0.16,2.53,0.31,3.8,0.45c0.13,0.79,0.33,1.56,0.51,2.34c0.11,0.66,0.16,1.33,0.25,1.99c0.09,0.67,0.2,1.34,0.29,2
			c0.18,1.24,0.34,2.49,0.46,3.75c0.1,1.21,0.14,2.42,0.09,3.63C187.69,466.29,187.56,467.34,187.37,468.38z M234.76,463.44
			c-0.16,0.81-0.39,1.6-0.64,2.39c-0.25,0.75-0.56,1.48-0.9,2.2c-0.32,0.63-0.67,1.25-1.05,1.84c-0.42,0.62-0.87,1.21-1.31,1.81
			c-1.26,0.08-2.52,0.16-3.79,0.22c-5.65,0.29-11.3,0.34-16.95,0.31c-5.83-0.07-11.67-0.26-17.49-0.64c0.11-0.34,0.2-0.69,0.29-1.03
			c0.36-1.48,0.52-3,0.48-4.52c-0.1-3.45-0.7-6.89-1.47-10.25c-0.17-0.76-0.4-1.51-0.63-2.25c-0.16-0.51-0.34-1.01-0.54-1.5
			c0.8,0.08,1.6,0.15,2.4,0.22c7.7,0.69,15.42,1.18,23.15,1.18c0.08,0,0.16,0,0.25,0c5.67,0,11.34-0.09,17-0.31
			c0.09,0.22,0.18,0.45,0.27,0.68c0.31,0.91,0.55,1.85,0.77,2.78c0.19,0.9,0.31,1.82,0.4,2.74c0,0,0,0,0-0.01
			c0.05,0.61,0.07,1.22,0.05,1.83C234.99,461.89,234.89,462.67,234.76,463.44z M285.02,455.82c-0.13,0.62-0.3,1.23-0.49,1.83
			c-0.21,0.63-0.44,1.25-0.72,1.85c-0.31,0.63-0.64,1.24-1,1.84c-0.37,0.61-0.72,1.23-1.1,1.83c-0.24,0.34-0.48,0.67-0.73,1
			c-4.34,0.96-8.7,1.83-13.07,2.64c-7.57,1.4-15.19,2.62-22.84,3.55c-0.03,0-0.07,0.01-0.1,0.01c-2.68,0.31-5.36,0.59-8.05,0.83
			c0.24-0.47,0.46-0.94,0.67-1.43c0.82-1.92,1.35-3.95,1.57-6.03c0.13-1.19,0.17-2.39,0.11-3.58c-0.03-0.63-0.08-1.26-0.18-1.88
			c-0.13-0.79-0.34-1.56-0.61-2.31c-0.3-0.84-0.64-1.66-1.14-2.4c-0.14-0.21-0.28-0.41-0.42-0.61c0.77-0.04,1.55-0.08,2.32-0.12
			c3.6-0.2,7.21-0.45,10.8-0.79c3.55-0.34,7.08-0.77,10.61-1.22c7.68-0.99,15.37-2.03,22.98-3.43c0.05,0.13,0.11,0.25,0.16,0.38
			c0.24,0.55,0.48,1.1,0.69,1.66c0.19,0.55,0.35,1.1,0.48,1.67c0.09,0.46,0.16,0.93,0.2,1.4c0.04,0.61,0.06,1.22,0.04,1.82
			C285.16,454.83,285.1,455.32,285.02,455.82z M330.5,443.35c-0.18,0.92-0.41,1.81-0.69,2.7c-0.43,1.27-0.99,2.48-1.57,3.68
			c-0.32,0.66-0.65,1.3-1.01,1.94c-4.53,1.43-9.09,2.78-13.65,4.09c-7.43,2.15-14.91,4.09-22.41,6c-0.85,0.21-1.7,0.43-2.56,0.64
			c-0.2,0.05-0.41,0.1-0.61,0.15c0.6-1.25,1.07-2.56,1.36-3.91c0.37-1.74,0.48-3.55,0.43-5.32c-0.02-0.89-0.06-1.81-0.23-2.69
			c-0.17-0.9-0.42-1.77-0.76-2.63c-0.2-0.51-0.43-1.01-0.68-1.49c2.59-0.54,5.18-1.11,7.75-1.72c3.96-0.92,7.91-1.82,11.85-2.81
			c7.35-1.85,14.69-3.76,21.94-6.01c0.28-0.09,0.56-0.17,0.83-0.26c0.1,0.69,0.22,1.39,0.28,2.09c0.06,0.91,0.08,1.82,0.05,2.73
			C330.78,441.48,330.67,442.42,330.5,443.35z M372.98,425.26c-0.19,0.96-0.46,1.9-0.76,2.84c-0.46,1.36-1.01,2.7-1.62,4
			c-0.01,0.02-0.01,0.04-0.03,0.05c-0.46,0.94-0.96,1.85-1.49,2.75c-2.39,1.2-4.8,2.36-7.23,3.47c-5.14,2.34-10.34,4.49-15.59,6.56
			c-3.35,1.31-6.71,2.57-10.1,3.77c-0.93,0.33-1.86,0.66-2.8,0.97c0.26-0.64,0.48-1.3,0.69-1.96c1.02-3.26,1.28-6.72,0.99-10.11
			c-0.09-1.08-0.18-2.18-0.46-3.22c5.73-1.95,11.38-4.15,16.98-6.45c7.17-2.95,14.26-6.13,21.07-9.81c0.21-0.12,0.43-0.23,0.64-0.35
			c0.1,1.38,0.14,2.76,0.07,4.14C373.28,423.02,373.17,424.14,372.98,425.26z M402.92,405.3C402.92,405.3,402.92,405.3,402.92,405.3
			c0,0.03,0,0.05,0,0.07c0,0.01,0,0.01,0,0.02c0,0,0,0,0,0.01c0,0.04,0,0.07,0,0.1c0-0.02,0-0.05,0-0.07
			c-0.08,1.4-0.24,2.82-0.48,4.21c-0.26,1.29-0.63,2.56-1.03,3.81c-0.36,1.05-0.83,2.06-1.27,3.07c-7.08,5.01-14.5,9.5-22.1,13.69
			c-0.61,0.33-1.22,0.66-1.82,0.99c0.37-0.96,0.69-1.94,0.96-2.93c0.37-1.41,0.57-2.89,0.65-4.34c0.04-0.79,0.08-1.58,0.03-2.36
			c-0.05-0.76-0.13-1.51-0.25-2.26c-0.2-1.17-0.49-2.33-1-3.4c5.18-2.95,10.22-6.15,15.03-9.66c3.05-2.23,6.06-4.52,9-6.89
			c0.49-0.39,0.97-0.79,1.45-1.2c0,0,0,0,0,0.01c0.13,0.55,0.29,1.11,0.42,1.66c0.17,0.79,0.3,1.6,0.38,2.4
			c0.08,1.02,0.08,2.03,0.04,3.06C402.92,405.29,402.92,405.29,402.92,405.3C402.92,405.3,402.92,405.3,402.92,405.3
			C402.92,405.3,402.92,405.3,402.92,405.3C402.92,405.3,402.92,405.3,402.92,405.3z M392.53,397.31
			c-6.35,4.57-12.97,8.8-19.81,12.59c-7.33,3.98-14.86,7.55-22.61,10.63c-2.08,0.8-4.16,1.6-6.26,2.35
			c-3.55,1.26-7.11,2.49-10.7,3.63c-3.73,1.18-7.47,2.28-11.23,3.34c-7.7,2.17-15.44,4.18-23.19,6.13
			c-3.97,0.98-7.96,1.87-11.95,2.76c-3.91,0.87-7.83,1.73-11.76,2.5c-7.4,1.44-14.83,2.67-22.31,3.6c-0.01,0-0.03,0-0.04,0
			c-5.55,0.64-11.12,1.05-16.71,1.29c-5.67,0.25-11.36,0.49-17.05,0.45c0,0-0.01,0-0.01,0c-0.14,0-0.28,0-0.42,0
			c-0.11,0-0.22,0-0.34-0.01c-7.58-0.1-15.13-0.66-22.68-1.28c-7.54-0.62-15.06-1.38-22.55-2.41c-0.04-0.01-0.09-0.01-0.13-0.02
			c-0.01,0-0.03,0-0.05-0.01c-0.01,0-0.01,0-0.02,0c0,0-0.01,0-0.01,0c-6.11-0.88-12.21-1.89-18.27-3.03
			c-5.83-1.09-11.62-2.4-17.34-3.99c-0.04-0.01-0.08-0.02-0.11-0.03c-4.33-1.23-8.62-2.62-12.9-4.05c-4.6-1.54-9.14-3.25-13.6-5.15
			c-0.13-0.05-0.25-0.1-0.37-0.16c-0.03-0.01-0.05-0.02-0.08-0.03c-7.09-3.09-13.95-6.75-20.59-10.71
			c-4.46-2.7-8.83-5.59-12.91-8.83c-2.33-1.89-4.54-3.92-6.62-6.09c-1.03-1.09-2.06-2.19-3.04-3.34c-0.95-1.11-1.83-2.28-2.7-3.45
			c-0.01-0.01-0.02-0.03-0.03-0.04c0-0.01-0.01-0.01-0.01-0.02c-0.91-1.26-1.78-2.55-2.58-3.88c-0.73-1.2-1.48-2.41-2.17-3.63
			c-0.75-1.39-1.41-2.86-2-4.33c-0.55-1.44-1.05-2.9-1.52-4.36c-0.41-1.29-0.84-2.57-1.18-3.88c-0.31-1.22-0.56-2.46-0.83-3.69
			c0.08-0.84,0.18-1.68,0.3-2.51c0.44-2.83,1.02-5.62,1.76-8.38c0.77-2.67,1.68-5.29,2.77-7.85c1.06-2.36,2.24-4.65,3.54-6.89
			c1.41-2.29,2.94-4.5,4.6-6.62c1.55-1.87,3.2-3.66,4.94-5.35c2.1-1.94,4.29-3.76,6.59-5.46c3.78-2.69,7.77-5.09,11.82-7.34
			c3.89-2.09,7.87-3.98,11.98-5.63c4.05-1.56,8.18-2.8,12.37-3.86c4.43-1.1,8.89-2.12,13.39-2.94c0.12-0.02,0.24-0.04,0.37-0.07
			c-1.38,1.5-2.71,3.04-4.01,4.6c-4.21,5.12-7.9,10.63-10.63,16.68c-0.72,1.61-1.39,3.25-1.96,4.92c-0.59,1.72-1.09,3.47-1.54,5.24
			c-0.46,1.82-0.88,3.66-1.15,5.53c-0.25,1.7-0.35,3.43-0.36,5.15c0,1.16,0.09,2.31,0.18,3.46c0.09,1.09,0.19,2.18,0.39,3.25
			c0.34,1.79,0.85,3.54,1.5,5.24c0.05,0.14,0.11,0.28,0.17,0.42c-2.5-2.19-4.89-4.52-7.19-6.92c-3.2-3.36-6.43-6.75-9.18-10.5
			c-0.1-0.14-0.21-0.28-0.3-0.42c-0.01-0.01-0.02-0.03-0.03-0.04c0,0,0,0,0,0c0,0,0,0,0,0c0,0,0,0,0,0c0,0,0,0,0,0c0,0,0,0,0,0v0
			c-0.35-0.48-0.73-0.96-1.13-1.41c-0.26-0.29-0.68-0.8-1.12-0.76c-0.97,0.09,0,2.07,0.17,2.48c0.88,2.08,2.13,4.02,3.35,5.91
			c1.52,2.35,3.2,4.6,4.94,6.8c3.6,4.56,7.58,8.86,12.06,12.58c2.34,1.94,4.77,3.75,7.33,5.39c2.8,1.8,5.67,3.51,8.61,5.1
			c2.86,1.55,5.76,3.02,8.73,4.37c3.13,1.43,6.33,2.73,9.55,3.96c6.16,2.35,12.45,4.32,18.79,6.07c6.17,1.7,12.39,3.18,18.65,4.48
			c5.87,1.22,11.77,2.25,17.7,3.11c6.44,0.92,12.9,1.59,19.39,2.1c2.97,0.23,5.94,0.44,8.91,0.56c1.96,0.08,3.91,0.1,5.87,0.1
			c1.23,0,2.45-0.01,3.68-0.02c5.74-0.07,11.47-0.25,17.19-0.58c6.16-0.37,12.33-0.77,18.48-1.3c6.3-0.54,12.58-1.2,18.86-1.93
			c5.18-0.61,10.34-1.31,15.5-2.03c5.23-0.73,10.45-1.45,15.65-2.32c6.61-1.11,13.19-2.56,19.58-4.59c3.02-0.96,6-2.03,8.95-3.17
			c2.81-1.09,5.61-2.25,8.31-3.59c2.73-1.36,5.43-2.79,8.07-4.31c2.64-1.52,5.27-3.09,7.76-4.84c2.74-1.92,5.45-3.89,8.09-5.95
			c1.3-1.01,2.61-2,3.85-3.08c1.11-0.97,2.19-1.98,3.25-3c1.83-1.74,3.62-3.51,5.4-5.3c1.82-1.84,3.5-3.81,5.1-5.85
			c1.38-1.76,2.71-3.53,3.96-5.38c1.04-1.55,2.02-3.15,2.97-4.76c0.03-0.05,0.06-0.1,0.09-0.16c0,0,0,0.01,0,0.01s0,0,0-0.01v0l0,0
			c0.32-0.55,0.63-1.1,0.94-1.66c0-0.01,0.01-0.02,0.02-0.04c0.05-0.08,0.09-0.15,0.12-0.23c0.47-0.87,0.92-1.76,1.36-2.64
			c0.67-1.34,1.34-2.66,1.93-4.03c0.07-0.16,0.13-0.31,0.2-0.46c0.05-0.12,0.1-0.24,0.15-0.36c0.03-0.07,0.06-0.14,0.09-0.21
			c0-0.01,0.01-0.02,0.01-0.03c0.27-0.65,0.54-1.3,0.81-1.95c0.13-0.32,0.26-0.63,0.38-0.95c0.12-0.34,0.17-0.71,0.26-1.05
			c0.17-0.59,0.37-1.17,0.54-1.76c0.1-0.36-0.05-0.75-0.42-0.88c-0.32-0.11-0.7,0.03-0.84,0.34c-0.3,0.63-0.58,1.27-0.92,1.89
			c-0.19,0.31-0.39,0.61-0.56,0.93c-0.15,0.3-0.31,0.6-0.47,0.9c-0.33,0.6-0.66,1.19-1.01,1.78c-0.31,0.52-0.63,1.04-0.96,1.55
			c-0.25-2.85-0.84-5.66-1.7-8.39c-1.22-3.86-2.87-7.59-4.91-11.08c0.87,0.17,1.73,0.38,2.58,0.61c1.78,0.53,3.53,1.14,5.24,1.86
			c1.65,0.73,3.26,1.56,4.81,2.48c1.42,0.87,2.79,1.82,4.1,2.85c1.61,1.33,3.14,2.76,4.59,4.26c1.83,1.94,3.55,3.99,5.14,6.13
			c0.04,0.05,0.08,0.11,0.12,0.16c0.13,0.6,0.23,1.21,0.31,1.81c0.11,1.13,0.14,2.27,0.14,3.4c-0.03,1.53-0.14,3.05-0.33,4.57
			c-0.35,2.29-0.98,4.54-1.61,6.77c0.01-0.02,0.01-0.03,0.02-0.05c-0.02,0.05-0.03,0.1-0.05,0.16c0,0,0,0,0,0c0,0,0,0,0,0
			c0.01-0.04,0.02-0.07,0.03-0.11c-0.01,0.04-0.02,0.07-0.03,0.11c0,0.01,0,0.01-0.01,0.02c-0.01,0.02-0.01,0.04-0.02,0.07
			c0,0,0,0,0,0.01c0,0.01-0.01,0.02-0.01,0.04c0,0.01,0,0.02-0.01,0.03c0,0,0-0.01,0-0.01c-0.71,2.41-1.55,4.77-2.52,7.08
			c0,0,0,0,0,0.01c-1.13,2.56-2.43,5.04-3.85,7.45c-1.92,3.14-4.1,6.1-6.39,8.98c-2.04,2.52-4.19,4.93-6.39,7.3
			c-2.27,2.45-4.56,4.87-6.96,7.19C400.8,390.96,396.73,394.22,392.53,397.31z M426.14,387.98c-0.33,1.7-0.74,3.37-1.26,5.02
			c-0.01,0.04-0.02,0.07-0.04,0.11c-0.16,0.49-0.34,0.97-0.51,1.45c-0.97,1.17-1.96,2.33-2.95,3.49c-1.6,1.88-3.34,3.62-5.12,5.33
			c-0.04,0.04-0.09,0.08-0.13,0.12c-0.01,0.01-0.03,0.03-0.04,0.04c-0.01,0.01-0.03,0.03-0.04,0.04c-3.09,2.92-6.35,5.67-9.7,8.28
			c0.09-0.36,0.17-0.72,0.24-1.08c0.2-1.03,0.38-2.06,0.45-3.11c0.2-2.86,0-5.75-0.67-8.55c-0.17-0.69-0.36-1.4-0.66-2.05
			c-0.23-0.49-0.49-0.97-0.79-1.42c1.46-1.3,2.89-2.64,4.31-4c2.52-2.4,4.97-4.87,7.29-7.45c2.31-2.57,4.51-5.24,6.6-8
			c0.76-1,1.49-2.02,2.2-3.05c0.02,0.03,0.04,0.07,0.05,0.1c0.17,0.35,0.33,0.72,0.47,1.09c0.25,0.74,0.47,1.49,0.64,2.26
			c0.08,0.37,0.16,0.74,0.2,1.11c0.09,1.7,0.09,3.41,0.02,5.11C426.64,384.56,426.45,386.27,426.14,387.98z M435.92,378.58
			c-0.02,0.03-0.03,0.05-0.05,0.08c-1.83,2.99-3.8,5.89-5.88,8.71c0.38-2.45,0.57-4.93,0.6-7.42c0.01-0.62,0.02-1.24,0.01-1.87
			c0-0.27-0.01-0.53-0.04-0.8c-0.03-0.28-0.09-0.56-0.16-0.83c-0.06-0.27-0.13-0.54-0.21-0.81c-0.37-1.18-0.9-2.32-1.57-3.36
			c-0.3-0.47-0.63-0.92-0.99-1.34c-0.16-0.18-0.31-0.36-0.48-0.54c0.75-1.18,1.47-2.37,2.16-3.58c1.66-2.88,3.07-5.89,4.21-9.02
			c0.29-0.79,0.55-1.6,0.8-2.41c0.18,0.22,0.36,0.44,0.52,0.67c0.66,0.96,1.32,1.93,1.88,2.95c0,0,0,0,0,0
			c0.01,0.03,0.03,0.06,0.04,0.09c-0.01-0.03-0.03-0.05-0.04-0.08c0.5,0.99,0.97,2.01,1.36,3.05c0.31,0.89,0.6,1.79,0.82,2.71
			c0.27,1.26,0.51,2.52,0.64,3.8c0.08,1.01,0.13,2.01,0.13,3.02C438.55,373.99,437.27,376.31,435.92,378.58z M442.53,362.9
			c-0.02,0.12-0.04,0.25-0.06,0.37c-0.18-0.89-0.43-1.77-0.75-2.62c-0.89-2.36-2.17-4.59-3.92-6.42c-0.77-0.8-1.63-1.46-2.63-1.91
			c0.4-1.75,0.68-3.53,0.82-5.31c0.13-1.78,0.21-3.57,0.24-5.35c0.01-1.11,0.01-2.23-0.04-3.34c1.27,2.03,2.45,4.12,3.62,6.21
			c0.29,0.58,0.54,1.18,0.78,1.78c0.51,1.34,0.95,2.7,1.31,4.09c0.31,1.24,0.56,2.5,0.74,3.77c0.16,1.45,0.25,2.91,0.25,4.38
			C442.85,360,442.72,361.45,442.53,362.9z"/>
		<path class="st1" d="M227.53,138.67c-1.42-0.67-2.91-1.17-4.45-1.51c-0.89-0.2-1.82-0.38-2.76-0.46
			c-0.61-0.13-1.23-0.23-1.85-0.25c-1.82-0.05-3.74,0.11-5.3,1.15c-1.21,0.8-2.07,2.02-2.4,3.45c-0.26,1.13-0.09,2.5,0.44,3.53
			c0.78,1.52,2.08,2.78,3.54,3.66c0.78,0.47,1.64,0.79,2.49,1.11c0.49,0.18,0.98,0.36,1.47,0.53c1.03,0.35,2.08,0.66,3.14,0.93
			c1.57,0.4,3.19,0.73,4.81,0.8c0.28,0.01,0.55,0.02,0.83,0.02c0.58,0,1.17-0.04,1.74-0.17c1.65-0.38,3.18-1.32,3.92-2.92
			C235.13,144.28,231.06,140.35,227.53,138.67z"/>
		<path class="st1" d="M157.61,112.5c-0.17-0.14-0.35-0.27-0.53-0.39c-0.01-0.01-0.02-0.02-0.03-0.03
			c-0.62-0.77-1.46-1.35-2.32-1.83c-0.83-0.47-1.73-0.77-2.64-1.03c-0.83-0.23-1.64-0.4-2.5-0.45c-0.61,0-1.18,0.07-1.78,0.22
			c-0.85,0.22-1.68,0.76-2.26,1.42c-1.33,1.53-1.49,3.75-0.39,5.46c0.6,0.94,1.45,1.65,2.44,2.16c0.35,0.18,0.71,0.35,1.07,0.51
			c0.01,0,0.01,0,0.02,0.01c0.04,0.02,0.08,0.03,0.12,0.05c-0.03-0.01-0.07-0.03-0.1-0.04c0,0-0.01,0-0.01-0.01c0,0,0.01,0,0.01,0
			c0.7,0.3,1.43,0.52,2.13,0.8c0.12,0.06,0.25,0.12,0.38,0.17c0.94,0.41,1.94,0.75,2.96,0.9c0.47,0.07,0.92,0.11,1.38,0.11
			c0.34,0,0.69-0.02,1.04-0.07c1.36-0.18,2.7-1.15,3.12-2.5c0.38-1.24,0.24-2.6-0.53-3.68C158.74,113.65,158.23,113,157.61,112.5z"
			/>
	</g>
</g>
</svg>
