<?xml version="1.0" encoding="UTF-8"?>
<svg viewBox="0 0 22 22" xmlns="http://www.w3.org/2000/svg">
<path d="m11 21c5.5228 0 10-4.4772 10-10 0-5.5228-4.4772-10-10-10-5.5228 0-10 4.4772-10 10 0 5.5228 4.4772 10 10 10z" fill="#FFD93B"/>
<path d="m20.952 11c0 5.525-4.4781 10-10 10-3.1437 0-5.95-1.45-7.7843-3.7219 1.7156 1.3875 3.9 2.2156 6.2781 2.2156 5.5219 0 10-4.475 10-10 0-2.3781-0.8281-4.5625-2.2156-6.2781 2.2687 1.8344 3.7218 4.6406 3.7218 7.7844z" fill="#F4C534"/>
<path d="m18.823 10.051c0 1.7875-1.635 3.2375-3.6575 3.2375-2.0169 0-3.6575-1.45-3.6575-3.2375 0-1.7875 1.6406-3.2375 3.6575-3.2375 2.0225 0 3.6575 1.45 3.6575 3.2375z" fill="#F4C534"/>
<path d="m15.166 12.602c1.5926 0 2.8837-1.1422 2.8837-2.5512 0-1.4091-1.2911-2.5513-2.8837-2.5513-1.5927 0-2.8838 1.1422-2.8838 2.5513 0 1.409 1.2911 2.5512 2.8838 2.5512z" fill="#fff"/>
<path d="m15.589 10.117c0 0.7468-0.6025 1.3493-1.3494 1.3493s-1.3494-0.6025-1.3494-1.3493c0-0.74192 0.6025-1.3494 1.3494-1.3494s1.3494 0.6075 1.3494 1.3494z" fill="#3E4347"/>
<path d="m14.883 9.4738c-0.1535-0.15352-0.3615-0.19448-0.4645-0.09148s-0.062 0.31096 0.0915 0.46448 0.3615 0.19452 0.4645 0.09148c0.103-0.103 0.062-0.31095-0.0915-0.46448z" fill="#fff"/>
<path d="m15.829 6.4282c-1.5431 0.82312-3.0769 1.9094-4.5437 3.2319 1.085-1.9025 2.2431-3.52 3.5262-4.6775 0.19-0.175 0.4319-0.24687 0.6706-0.22625 0.2175 0.01875 0.4325 0.12 0.5925 0.29813 0.3838 0.4275 0.2644 1.1062-0.2456 1.3738z" fill="#3E4347"/>
<path d="m3.1768 10.051c0 1.7875 1.635 3.2375 3.6575 3.2375 2.0169 0 3.6575-1.45 3.6575-3.2375 0-1.7875-1.6407-3.2375-3.6575-3.2375-2.0225 0-3.6575 1.45-3.6575 3.2375z" fill="#F4C534"/>
<path d="m6.8344 12.602c1.5927 0 2.8838-1.1422 2.8838-2.5512 0-1.4091-1.2911-2.5513-2.8838-2.5513-1.5926 0-2.8838 1.1422-2.8838 2.5513 0 1.409 1.2911 2.5512 2.8838 2.5512z" fill="#fff"/>
<path d="m9.1099 10.117c0 0.7468-0.6025 1.3493-1.3494 1.3493-0.74688 0-1.3494-0.6025-1.3494-1.3493 0-0.74192 0.6025-1.3494 1.3494-1.3494 0.74687 0 1.3494 0.6075 1.3494 1.3494z" fill="#3E4347"/>
<path d="m8.4046 9.473c-0.15353-0.15353-0.36148-0.19449-0.46448-0.09149-0.103 0.10301-0.06204 0.31096 0.09148 0.46448 0.15352 0.15353 0.36148 0.19446 0.46448 0.09148 0.103-0.103 0.06204-0.31095-0.09148-0.46447z" fill="#fff"/>
<path d="m6.1715 6.4282c1.5438 0.82312 3.0769 1.9094 4.5438 3.2319-1.085-1.9025-2.2431-3.52-3.5263-4.6775-0.19-0.175-0.43125-0.24687-0.67062-0.22625-0.2175 0.01875-0.4325 0.12-0.5925 0.29813-0.38375 0.4275-0.26438 1.1062 0.24562 1.3738z" fill="#3E4347"/>
<path d="m13.959 16.12c-1.6075-1.3975-4.7662 0.1819-6.7994 1.4769-0.25562 0.165-0.5225-0.1763-0.3125-0.3919 5.3682-5.5044 7.0156-3.0331 7.5156-1.3519 0.0681 0.2325-0.2163 0.4263-0.4038 0.2669z" fill="#3E4347"/>
</svg>
